<svg xmlns="http://www.w3.org/2000/svg" width="1200" height="675" viewBox="0 0 1200 675" fill="none">
  <rect width="1200" height="675" fill="#F8FAFC"/>
  <rect x="70" y="48" width="1060" height="579" rx="20" fill="white" stroke="#0F172A" stroke-opacity="0.12"/>
  <rect x="110" y="92" width="980" height="76" rx="10" fill="#E2E8F0"/>
  <text x="130" y="140" fill="#0F172A" font-family="Georgia, serif" font-size="34" font-weight="700">CA Professional Style</text>
  <rect x="110" y="194" width="320" height="14" rx="7" fill="#475569" fill-opacity="0.18"/>
  <rect x="110" y="222" width="980" height="8" rx="4" fill="#CBD5E1"/>
  <rect x="110" y="246" width="960" height="8" rx="4" fill="#CBD5E1"/>
  <rect x="110" y="286" width="320" height="14" rx="7" fill="#475569" fill-opacity="0.18"/>
  <rect x="110" y="314" width="980" height="8" rx="4" fill="#CBD5E1"/>
  <rect x="110" y="338" width="940" height="8" rx="4" fill="#CBD5E1"/>
  <rect x="110" y="378" width="320" height="14" rx="7" fill="#475569" fill-opacity="0.18"/>
  <rect x="110" y="406" width="980" height="8" rx="4" fill="#CBD5E1"/>
  <rect x="110" y="430" width="930" height="8" rx="4" fill="#CBD5E1"/>
</svg>
