<svg xmlns="http://www.w3.org/2000/svg" viewBox="0 0 1200 760" role="img" aria-label="Compact template preview">
  <defs>
    <linearGradient id="bg2" x1="0" y1="0" x2="1" y2="1">
      <stop offset="0%" stop-color="#fff7ed"/>
      <stop offset="100%" stop-color="#eff6ff"/>
    </linearGradient>
  </defs>
  <rect width="1200" height="760" fill="url(#bg2)"/>
  <rect x="260" y="40" width="680" height="680" rx="10" fill="#fff" stroke="#d1d5db"/>
  <rect x="310" y="86" width="260" height="18" fill="#0f172a"/>
  <rect x="310" y="116" width="420" height="8" fill="#334155"/>
  <rect x="310" y="156" width="580" height="3" fill="#111827"/>
  <rect x="310" y="177" width="210" height="10" fill="#111827"/>
  <rect x="760" y="177" width="120" height="10" fill="#475569"/>
  <circle cx="324" cy="203" r="3" fill="#111827"/>
  <rect x="338" y="198" width="500" height="7" fill="#334155"/>
  <circle cx="324" cy="221" r="3" fill="#111827"/>
  <rect x="338" y="216" width="430" height="7" fill="#334155"/>
  <rect x="310" y="252" width="580" height="3" fill="#111827"/>
  <rect x="310" y="273" width="230" height="10" fill="#111827"/>
  <rect x="760" y="273" width="120" height="10" fill="#475569"/>
  <circle cx="324" cy="299" r="3" fill="#111827"/>
  <rect x="338" y="294" width="500" height="7" fill="#334155"/>
  <circle cx="324" cy="317" r="3" fill="#111827"/>
  <rect x="338" y="312" width="470" height="7" fill="#334155"/>
  <rect x="310" y="348" width="580" height="3" fill="#111827"/>
  <rect x="310" y="369" width="280" height="10" fill="#111827"/>
  <rect x="760" y="369" width="120" height="10" fill="#475569"/>
  <circle cx="324" cy="395" r="3" fill="#111827"/>
  <rect x="338" y="390" width="520" height="7" fill="#334155"/>
</svg>
