<svg xmlns="http://www.w3.org/2000/svg" viewBox="0 0 1200 760" role="img" aria-label="Jake template preview">
  <defs>
    <linearGradient id="bg1" x1="0" y1="0" x2="1" y2="1">
      <stop offset="0%" stop-color="#eef6ff"/>
      <stop offset="100%" stop-color="#f4fff7"/>
    </linearGradient>
  </defs>
  <rect width="1200" height="760" fill="url(#bg1)"/>
  <rect x="260" y="40" width="680" height="680" rx="10" fill="#fff" stroke="#d1d5db"/>
  <rect x="310" y="86" width="240" height="18" fill="#0f172a"/>
  <rect x="310" y="116" width="380" height="8" fill="#334155"/>
  <rect x="310" y="160" width="580" height="3" fill="#111827"/>
  <rect x="310" y="182" width="180" height="10" fill="#111827"/>
  <rect x="760" y="182" width="120" height="10" fill="#475569"/>
  <rect x="310" y="204" width="380" height="8" fill="#334155"/>
  <rect x="310" y="240" width="580" height="3" fill="#111827"/>
  <rect x="310" y="262" width="230" height="10" fill="#111827"/>
  <rect x="760" y="262" width="120" height="10" fill="#475569"/>
  <circle cx="324" cy="288" r="3" fill="#111827"/>
  <rect x="338" y="283" width="500" height="7" fill="#334155"/>
  <circle cx="324" cy="306" r="3" fill="#111827"/>
  <rect x="338" y="301" width="460" height="7" fill="#334155"/>
  <rect x="310" y="344" width="580" height="3" fill="#111827"/>
  <rect x="310" y="366" width="230" height="10" fill="#111827"/>
  <rect x="760" y="366" width="120" height="10" fill="#475569"/>
  <circle cx="324" cy="392" r="3" fill="#111827"/>
  <rect x="338" y="387" width="500" height="7" fill="#334155"/>
  <circle cx="324" cy="410" r="3" fill="#111827"/>
  <rect x="338" y="405" width="420" height="7" fill="#334155"/>
  <rect x="310" y="448" width="580" height="3" fill="#111827"/>
  <rect x="310" y="470" width="460" height="8" fill="#334155"/>
</svg>
