<svg xmlns="http://www.w3.org/2000/svg" viewBox="0 0 1200 760" role="img" aria-label="Student template preview">
  <defs>
    <linearGradient id="bg3" x1="0" y1="0" x2="1" y2="1">
      <stop offset="0%" stop-color="#f0fdfa"/>
      <stop offset="100%" stop-color="#eef2ff"/>
    </linearGradient>
  </defs>
  <rect width="1200" height="760" fill="url(#bg3)"/>
  <rect x="260" y="40" width="680" height="680" rx="10" fill="#fff" stroke="#d1d5db"/>
  <rect x="310" y="86" width="230" height="18" fill="#0f172a"/>
  <rect x="310" y="116" width="410" height="8" fill="#334155"/>
  <rect x="310" y="156" width="580" height="3" fill="#111827"/>
  <rect x="310" y="177" width="170" height="10" fill="#111827"/>
  <rect x="760" y="177" width="120" height="10" fill="#475569"/>
  <rect x="310" y="198" width="420" height="8" fill="#334155"/>
  <rect x="310" y="236" width="580" height="3" fill="#111827"/>
  <rect x="310" y="257" width="250" height="10" fill="#111827"/>
  <rect x="760" y="257" width="120" height="10" fill="#475569"/>
  <circle cx="324" cy="283" r="3" fill="#111827"/>
  <rect x="338" y="278" width="500" height="7" fill="#334155"/>
  <circle cx="324" cy="301" r="3" fill="#111827"/>
  <rect x="338" y="296" width="480" height="7" fill="#334155"/>
  <rect x="310" y="338" width="580" height="3" fill="#111827"/>
  <rect x="310" y="359" width="430" height="8" fill="#334155"/>
  <rect x="310" y="395" width="580" height="3" fill="#111827"/>
  <circle cx="324" cy="421" r="3" fill="#111827"/>
  <rect x="338" y="416" width="500" height="7" fill="#334155"/>
</svg>
