<svg xmlns="http://www.w3.org/2000/svg" viewBox="0 0 1200 760" role="img" aria-label="Table education template preview">
  <defs>
    <linearGradient id="bgc2" x1="0" y1="0" x2="1" y2="1">
      <stop offset="0%" stop-color="#f8fafc"/>
      <stop offset="100%" stop-color="#eef2ff"/>
    </linearGradient>
  </defs>
  <rect width="1200" height="760" fill="url(#bgc2)"/>
  <rect x="255" y="32" width="690" height="696" rx="6" fill="#fff" stroke="#d1d5db"/>
  <circle cx="320" cy="92" r="28" fill="#dbeafe" stroke="#93c5fd"/>
  <rect x="360" y="70" width="250" height="18" fill="#111827"/>
  <rect x="360" y="98" width="280" height="10" fill="#374151"/>
  <rect x="740" y="72" width="150" height="10" fill="#1f2937"/>
  <rect x="740" y="92" width="150" height="10" fill="#1f2937"/>
  <rect x="300" y="132" width="600" height="3" fill="#111827"/>
  <rect x="300" y="150" width="600" height="118" fill="#fff" stroke="#111827"/>
  <line x1="300" y1="178" x2="900" y2="178" stroke="#111827"/>
  <line x1="360" y1="150" x2="360" y2="268" stroke="#111827"/>
  <line x1="560" y1="150" x2="560" y2="268" stroke="#111827"/>
  <line x1="760" y1="150" x2="760" y2="268" stroke="#111827"/>
  <line x1="300" y1="206" x2="900" y2="206" stroke="#111827"/>
  <line x1="300" y1="234" x2="900" y2="234" stroke="#111827"/>
  <rect x="320" y="159" width="30" height="8" fill="#111827"/>
  <rect x="390" y="159" width="130" height="8" fill="#111827"/>
  <rect x="590" y="159" width="140" height="8" fill="#111827"/>
  <rect x="790" y="159" width="90" height="8" fill="#111827"/>
  <rect x="300" y="286" width="600" height="3" fill="#111827"/>
  <rect x="300" y="312" width="240" height="10" fill="#111827"/>
  <rect x="760" y="312" width="120" height="9" fill="#6b7280"/>
  <circle cx="312" cy="338" r="3" fill="#111827"/>
  <rect x="326" y="333" width="530" height="8" fill="#374151"/>
  <rect x="300" y="370" width="600" height="3" fill="#111827"/>
  <rect x="300" y="395" width="240" height="10" fill="#111827"/>
  <circle cx="312" cy="422" r="3" fill="#111827"/>
  <rect x="326" y="417" width="530" height="8" fill="#374151"/>
</svg>
