<svg xmlns="http://www.w3.org/2000/svg" viewBox="0 0 64 64" role="img" aria-label="ResumeSutra favicon">
  <defs>
    <linearGradient id="favGrad" x1="0" y1="0" x2="1" y2="1">
      <stop offset="0%" stop-color="#f7b500"/>
      <stop offset="50%" stop-color="#f8961e"/>
      <stop offset="100%" stop-color="#f05d5e"/>
    </linearGradient>
  </defs>
  <rect width="64" height="64" rx="12" fill="#ffffff"/>
  <g transform="translate(2,2)">
    <path d="M26 9c-8 0-15 7-15 15 0 14 14 17 25 22 9 4 13 7 13 13 0 8-6 14-14 14"
      fill="none" stroke="url(#favGrad)" stroke-width="5" stroke-linecap="round"/>
    <path d="M36 18c-4 4-12 4-16 0" fill="none" stroke="url(#favGrad)" stroke-width="4" stroke-linecap="round"/>
    <path d="M23 14a2 2 0 1 1 0 .1" fill="none" stroke="url(#favGrad)" stroke-width="3" stroke-linecap="round"/>
    <path d="M38 14a2 2 0 1 1 0 .1" fill="none" stroke="url(#favGrad)" stroke-width="3" stroke-linecap="round"/>
    <rect x="14" y="40" width="14" height="11" rx="3" fill="none" stroke="url(#favGrad)" stroke-width="4"/>
    <rect x="28" y="31" width="17" height="15" rx="4" fill="none" stroke="url(#favGrad)" stroke-width="4"/>
    <rect x="31" y="46" width="17" height="8" rx="3" fill="none" stroke="url(#favGrad)" stroke-width="4"/>
  </g>
</svg>
