<svg xmlns="http://www.w3.org/2000/svg" viewBox="0 0 920 220" role="img" aria-label="ResumeSutra logo">
  <defs>
    <linearGradient id="sutraGrad" x1="0" y1="0" x2="1" y2="1">
      <stop offset="0%" stop-color="#f7b500"/>
      <stop offset="50%" stop-color="#f8961e"/>
      <stop offset="100%" stop-color="#f05d5e"/>
    </linearGradient>
  </defs>

  <g transform="translate(18,10)">
    <path d="M88 22c-26 0-48 22-48 48 0 45 44 56 82 72 30 12 42 24 42 44 0 22-18 40-40 40"
      fill="none" stroke="url(#sutraGrad)" stroke-width="16" stroke-linecap="round"/>
    <path d="M120 48c-13 13-39 13-52 0" fill="none" stroke="url(#sutraGrad)" stroke-width="12" stroke-linecap="round"/>
    <path d="M81 36a8 8 0 1 1 0 .1" fill="none" stroke="url(#sutraGrad)" stroke-width="10" stroke-linecap="round"/>
    <path d="M126 36a8 8 0 1 1 0 .1" fill="none" stroke="url(#sutraGrad)" stroke-width="10" stroke-linecap="round"/>
    <rect x="48" y="124" width="48" height="40" rx="10" fill="none" stroke="url(#sutraGrad)" stroke-width="12"/>
    <rect x="96" y="96" width="58" height="50" rx="12" fill="none" stroke="url(#sutraGrad)" stroke-width="12"/>
    <rect x="108" y="146" width="58" height="24" rx="10" fill="none" stroke="url(#sutraGrad)" stroke-width="12"/>
  </g>

  <text x="210" y="174" font-size="74" font-family="Segoe UI, Arial, sans-serif" font-weight="800" letter-spacing="1" fill="#1f2937">RESUME</text>
  <text x="516" y="174" font-size="74" font-family="Segoe UI, Arial, sans-serif" font-style="italic" font-weight="700" fill="#f2704a">SUTRA</text>
</svg>
