<?xml version="1.0" encoding="UTF-8" standalone="no"?>
<!-- Generator: Adobe Illustrator 17.0.0, SVG Export Plug-In . SVG Version: 6.00 Build 0)  -->

<svg
   xmlns:dc="http://purl.org/dc/elements/1.1/"
   xmlns:cc="http://creativecommons.org/ns#"
   xmlns:rdf="http://www.w3.org/1999/02/22-rdf-syntax-ns#"
   xmlns:svg="http://www.w3.org/2000/svg"
   xmlns="http://www.w3.org/2000/svg"
   xmlns:sodipodi="http://sodipodi.sourceforge.net/DTD/sodipodi-0.dtd"
   xmlns:inkscape="http://www.inkscape.org/namespaces/inkscape"
   version="1.1"
   id="Layer_1"
   x="0px"
   y="0px"
   width="319"
   height="319"
   viewBox="0 0 319.00001 319.00001"
   enable-background="new 0 0 833.686 81.589"
   xml:space="preserve"
   sodipodi:docname="1.svg"
   inkscape:version="0.92.4 (5da689c313, 2019-01-14)"><metadata
   id="metadata130"><rdf:RDF><cc:Work
       rdf:about=""><dc:format>image/svg+xml</dc:format><dc:type
         rdf:resource="http://purl.org/dc/dcmitype/StillImage" /><dc:title></dc:title></cc:Work></rdf:RDF></metadata><defs
   id="defs128" /><sodipodi:namedview
   pagecolor="#ffffff"
   bordercolor="#666666"
   borderopacity="1"
   objecttolerance="10"
   gridtolerance="10"
   guidetolerance="10"
   inkscape:pageopacity="0"
   inkscape:pageshadow="2"
   inkscape:window-width="1366"
   inkscape:window-height="705"
   id="namedview126"
   showgrid="false"
   width="833px"
   inkscape:zoom="0.83972969"
   inkscape:cx="416.84299"
   inkscape:cy="40.794498"
   inkscape:window-x="-8"
   inkscape:window-y="-8"
   inkscape:window-maximized="1"
   inkscape:current-layer="Layer_1" />

<g
   id="g119"
   transform="matrix(3.9201993,0,0,4.0970475,-8.7604184,-9.0830803)"
   style="stroke-width:0.24952289">
	<g
   id="g111"
   style="stroke-width:0.24952289">
		<path
   d="m 73.252,15.894 c -11.105,0 -22.21,-0.07 -33.314,0.027 -6.241,0.055 -12.381,0.884 -18.164,3.472 -9.55,4.272 -15.049,12.449 -14.526,22.807 0.511,10.117 5.643,17.345 15.2,21.117 8.262,3.261 16.903,3.921 25.628,3.004 4.483,-0.471 9.024,-1.242 13.307,-2.606 9.53,-3.036 15.761,-9.33 17.202,-19.581 0.74,-5.26 -0.352,-10.232 -3.052,-14.814 -0.262,-0.445 -0.86,-0.969 -1.314,-0.979 -3.469,-0.081 -6.942,-0.045 -10.684,-0.045 0,11.023 0,21.887 0,32.861 -2.244,0 -4.216,0 -6.453,0 0,-10.93 0,-21.79 0,-32.682 -1.823,-0.168 -3.498,-0.03 -4.906,-0.577 -0.698,-0.271 -0.906,-1.802 -1.417,-2.946 0.817,-0.041 1.39,-0.094 1.964,-0.094 8.297,-0.005 16.594,0.035 24.891,-0.04 1.459,-0.013 2.143,0.477 2.61,1.809 5.392,15.406 3.042,29.39 -8.027,41.509 -5.381,5.891 -12.42,9.186 -20.249,10.578 C 39.597,80.909 27.949,79.145 17.702,71.533 8.85,64.957 4.145,55.927 3.186,44.95 2.118,32.719 5.615,22.064 14.525,13.494 21.175,7.097 29.357,3.964 38.497,3.065 48.47,2.083 57.791,3.93 66.24,9.377 c 2.646,1.706 4.944,3.953 7.401,5.952 -0.13,0.188 -0.26,0.376 -0.389,0.565 z"
   id="path109"
   inkscape:connector-curvature="0"
   style="fill:#003366;stroke-width:0.24952289" />
	</g>
	<path
   d="m 51.635,61.19 c -2.095,0 -4.014,0 -6.114,0 0,-9.255 0,-18.479 0,-27.817 2.037,0 4.007,0 6.114,0 0,9.235 0,18.415 0,27.817 z"
   id="path113"
   inkscape:connector-curvature="0"
   style="fill:#003366;stroke-width:0.24952289" />
	<path
   d="m 40.367,61.164 c -2.069,0 -4.039,0 -6.141,0 0,-7.144 0,-14.195 0,-21.402 2.037,0 4.008,0 6.141,0 0,7.043 0,14.098 0,21.402 z"
   id="path115"
   inkscape:connector-curvature="0"
   style="fill:#003366;stroke-width:0.24952289" />
	<path
   d="m 23.027,45.874 c 2.075,0 3.99,0 6.067,0 0,5.059 0,10.081 0,15.251 -1.961,0 -3.925,0 -6.067,0 0,-4.996 0,-10.019 0,-15.251 z"
   id="path117"
   inkscape:connector-curvature="0"
   style="fill:#003366;stroke-width:0.24952289" />
</g>
<rect
   x="91.623001"
   y="284.25299"
   width="100%"
   height="33.747002"
   id="rect121"
   style="fill:none" />

</svg>