<?xml version="1.0"?>
<svg width="454" height="227" viewBox="0 0 340.49998 170.25001" xmlns="http://www.w3.org/2000/svg">
<g transform="matrix(0.04912655,0,0,-0.04912655,-30.590655,205.3936)" fill="#000000" stroke-width="2.03556">
 <path d="M 660,2455 V 760 h 375 375 V 2455 4150 H 1035 660 Z" style="fill:#808080" />
 <path d="M 1850,2455 V 760 h 375 375 v 1695 1695 h -375 -375 z" style="fill:#666666" />
 <path d="M 3040,2455 V 760 h 375 375 v 1695 1695 h -375 -375 z" style="fill:#4d4d4d" />
 <path d="M 4230,2455 V 760 h 375 375 v 1360 1360 h 370 370 v 335 335 h -745 -745 z" style="fill:#333333" />
 <path d="m 6160,3781 v -328 l 50,-21 c 60,-25 176,-99 243,-156 72,-60 171,-188 221,-286 186,-362 164,-833 -55,-1159 -139,-209 -341,-347 -608,-419 -87,-23 -118,-26 -343,-30 l -248,-4 V 1069 760 h 218 c 317,0 509,26 735,100 707,233 1155,846 1157,1583 1,803 -499,1448 -1280,1647 -43,11 -81,20 -84,20 -3,0 -6,-148 -6,-329 z" style="fill:#3fada8" />
</g>
</svg>