<svg height="376.06447831834276" id="Layer_1" style="enable-background:new -122 -123.6 595.3 841.9;" version="1.1" viewBox="-122 -123.6 595.3 841.9" width="265.9118469448978" x="0px" xml:space="preserve" xmlns="http://www.w3.org/2000/svg" xmlns:xlink="http://www.w3.org/1999/xlink" y="0px">
<style type="text/css">
	.st0{fill:#0B8BCC;}
	.st1{fill:#77C043;}
	.st2{fill:#F47D3F;}
</style>
<g id="XMLID_173_">
	<path class="st0" d="M72.6,591.2H9.8v-16.5l16.8-7.7v-89.5l-16.8-7.7v-16.5h62.8v16.5l-16.8,7.7V567l16.8,7.7   V591.2z" id="XMLID_217_"/>
	<path class="st0" d="M156.1,591.2H93.3v-16.5l16.8-7.7v-89.5l-16.8-7.7v-16.5h62.8v16.5l-16.8,7.7V567l16.8,7.7   V591.2z" id="XMLID_213_"/>
	<path class="st0" d="M242.5,591.2L209.2,483h-0.8c1.1,22,1.9,36.6,1.9,44.1v64.2h-26.2V453h39.9l32.5,105.7h0.6   L291.8,453h39.9v138.2h-27.3v-65.3c0-3,0-6.6,0.3-10.7c0-4.1,0.6-14.9,1.4-32.2h-0.8l-35.5,108.2H242.5z" id="XMLID_209_"/>
	<path class="st0" d="M-46.1,717.9l-5.5-17.9h-27.5l-5.5,17.9h-17.3l26.7-75.7h19.6l26.7,75.7H-46.1z M-55.1,686.5   c-5-16.2-8-25.3-8.5-27.5c-0.6-2.2-1.1-3.9-1.4-5c-1.1,4.4-4.4,15.1-9.6,32.5H-55.1z" id="XMLID_204_"/>
	<path class="st0" d="M13.7,717.9l-18.2-59.2H-5c0.6,12.1,1.1,20.1,1.1,24v35h-14.3v-75.4H3.5l17.9,57.5h0.3   l19-57.5h21.8v75.4H47.3v-35.5c0-1.7,0-3.6,0-5.8c0-2.2,0.3-8,0.6-17.6h-0.6l-19.6,58.9h-14V717.9z" id="XMLID_201_"/>
	<path class="st0" d="M96.6,689v28.9h-16v-75.4h22c10.2,0,17.9,1.9,22.9,5.5c5,3.9,7.4,9.4,7.4,17.1   c0,4.4-1.1,8.3-3.6,11.8c-2.5,3.6-5.8,6.1-10.5,8l22,32.8h-17.6l-17.9-28.9h-8.8V689z M96.6,676h5.2c5,0,8.8-0.8,11.3-2.5   c2.5-1.7,3.6-4.4,3.6-8c0-3.6-1.1-6.1-3.6-7.7c-2.5-1.4-6.3-2.2-11.3-2.2h-5V676H96.6z" id="XMLID_195_"/>
	<path class="st0" d="M182.5,717.9h-34.1v-9.1l9.1-4.1v-48.7l-9.1-4.1v-9.1h34.1v9.1l-9.1,4.1v48.7l9.1,4.1V717.9z" id="XMLID_191_"/>
	<path class="st0" d="M227.4,717.9h-16v-62H191v-13.2h57v13.2h-20.4v62H227.4z" id="XMLID_188_"/>
	<path class="st0" d="M305.3,696.9c0,6.9-2.5,12.1-7.4,16c-5,3.9-11.8,5.8-20.4,5.8c-8,0-15.1-1.4-21.2-4.4v-14.9   c5,2.2,9.4,3.9,12.9,4.7c3.6,0.8,6.6,1.4,9.6,1.4c3.6,0,6.3-0.6,8-1.9c1.9-1.4,2.8-3.3,2.8-6.1c0-1.4-0.3-2.8-1.1-3.9   c-0.8-1.1-1.9-2.2-3.6-3.3c-1.7-1.1-5-2.8-9.6-5.2c-4.7-2.2-8-4.1-10.5-6.3c-2.2-1.9-4.1-4.4-5.5-6.9c-1.4-2.8-1.9-5.8-1.9-9.4   c0-6.6,2.2-11.8,6.9-15.7c4.4-3.9,10.7-5.8,18.7-5.8c3.9,0,7.7,0.6,11.3,1.4c3.6,0.8,7.2,2.2,11,3.9l-5.2,12.4   c-4.1-1.7-7.4-2.8-9.9-3.6c-2.8-0.6-5.2-1.1-7.7-1.1c-3,0-5.2,0.8-6.9,2.2c-1.7,1.4-2.5,3.3-2.5,5.5c0,1.4,0.3,2.8,1.1,3.6   c0.6,1.1,1.7,1.9,3,3c1.4,1.1,4.7,2.8,10.2,5.2c7.2,3.3,11.8,6.9,14.6,10.2C304.2,687.9,305.3,692,305.3,696.9z" id="XMLID_185_"/>
	<path class="st0" d="M366.2,717.9l-5.5-17.9h-27.5l-5.5,17.9h-17.3l26.7-75.7h19.6l26.7,75.7H366.2z M357.1,686.5   c-5-16.2-8-25.3-8.5-27.5c-0.6-2.2-1.1-3.9-1.4-5c-1.1,4.4-4.4,15.1-9.6,32.5H357.1z" id="XMLID_179_"/>
	<path class="st0" d="M409.9,689v28.9h-16v-75.4h22c10.2,0,17.9,1.9,22.9,5.5c5,3.9,7.4,9.4,7.4,17.1   c0,4.4-1.1,8.3-3.6,11.8c-2.5,3.6-5.8,6.1-10.5,8l22,32.8h-17.6l-17.9-28.9h-8.8V689z M409.9,676h5.2c5,0,8.8-0.8,11.3-2.5   c2.5-1.7,3.6-4.4,3.6-8c0-3.6-1.1-6.1-3.6-7.7c-2.5-1.4-6.3-2.2-11.3-2.2h-5V676H409.9z" id="XMLID_174_"/>
</g>
<g id="XMLID_5_">
	<g id="XMLID_246_">
		<path class="st0" d="M20.3,190.8c5,1.7,9.9,3,14.6,4.1c20.9,5,41.6,5.8,61.7,2.8c4.7-12.7,11-25.1,18.7-36.6    c-13.2-5-26.2-11.6-38-19.6C55.3,152.8,35.7,169.6,20.3,190.8z" id="XMLID_256_"/>
		<path class="st0" d="M257.7,13.8c-19.3,8-36.1,19-50.1,33c3.9,13.5,6.3,27.5,6.9,41.9c13.2-3.6,26.7-5.8,40.2-6.1    C266.2,60.3,272,35.3,272,8.6C267.3,10.2,262.3,11.9,257.7,13.8z" id="XMLID_255_"/>
		<path class="st0" d="M184.7,291.3c11-17.9,17.9-36.6,21.2-56.2c-10.7-8.5-20.7-18.4-29.5-29.5    c-8.5,11-18.4,20.7-29.5,29.2c3.9,24.2,13.8,47.6,29.2,68.8C179.2,299.9,181.9,295.5,184.7,291.3z" id="XMLID_254_"/>
		<path class="st1" d="M253.5,3.9c7.2-3,14.6-5.5,22.3-7.7l6.6-1.9l0.3,6.9c1.1,29.2-4.4,56.7-16,81.5    c7.2,0.3,14.3,0.8,21.5,2.2c8,1.4,15.7,3,23.4,5.2C339.4,49.6,348.8-3,332.6-53.4l0,0c-1.4-4.4-3-8.8-5-13.2    c-22-1.9-44.1,0.6-65.5,7.4C230.4-49,203.1-29.7,183.3-3.8c8.5,12.1,15.4,25.3,20.4,39.4C218,22.3,234.5,11.6,253.5,3.9z" id="XMLID_253_"/>
		<path class="st0" d="M79.8,8c0,5.2,0.3,10.2,0.6,15.1c1.7,21.5,7.4,41.6,16.5,59.8c13.8,0.6,27.3,2.8,40.8,6.3    c0.6-14,3-28.1,6.9-41.9C127.1,29.8,105.1,16.3,79.8,8z" id="XMLID_252_"/>
		<path class="st1" d="M194.1,296.8c-4.1,6.6-8.5,13.2-13.5,19.3l-4.4,5.5l-4.4-5.5c-17.9-22.6-29.5-47.6-34.7-74.1    c-6.1,4.1-12.1,7.7-18.7,11c-7.2,3.6-14.3,6.6-21.5,9.4c1.1,49.3,24.5,97.8,67.5,128.9l0,0c3.9,2.8,7.7,5.2,11.6,7.7    c19-11.3,35.5-26.4,48.7-44.6c19.8-27.3,30.6-59.2,31.4-92.2c-14.3-5-27.8-11.8-40.2-20.1C212,261.1,204.5,279.5,194.1,296.8z" id="XMLID_251_"/>
		<path class="st1" d="M393.7,161.1C373.9,133.8,346.9,114,316,103c-9.1,11.8-19.6,22.6-31.1,31.7    c16.8,9.4,31.9,22,45.2,37.4c5,5.8,9.9,12.1,14.3,19l3.9,5.8l-6.3,2.5c-20.4,7.4-41,11.3-61.4,11.3c-6.9,0-13.5-0.6-20.4-1.4    c1.9,6.9,3.6,14,4.7,21.5c1.4,8,1.9,15.7,2.2,23.4c47.4,14,100.2,6.6,143.2-24.5c3.9-2.8,7.4-5.8,11-8.8    C416,199.4,406.9,179.3,393.7,161.1z" id="XMLID_250_"/>
		<path class="st1" d="M72.9,210.7c-13.2,0-26.7-1.7-40.5-5c-7.4-1.7-15.1-4.1-22.6-6.9l-6.3-2.5l3.9-5.8    c16-24.2,36.9-43.2,60.6-56.4c-5.2-4.1-10.5-8.8-15.1-13.5c-5.5-5.5-10.7-11.6-15.4-17.9C-9.4,119-48.5,156.1-65.1,207.1    c-1.4,4.4-2.8,9.1-3.9,13.5c16.8,14.6,36.1,25.6,57.3,32.5c32.2,10.5,65.8,10.7,97.5,1.4c0.3-15.4,2.8-30.6,6.9-45.2    C86.1,210.1,79.5,210.7,72.9,210.7z" id="XMLID_249_"/>
		<path class="st1" d="M84.7,82.9C76.2,65,71.3,45.2,69.3,24.2c-0.6-7.7-0.8-15.7-0.6-23.7L69-6.3l6.6,1.9    c28.1,8,52.9,21.8,72.7,40.5c2.5-6.3,5-12.7,8.3-18.7c3.9-7.4,8-14.6,12.7-21.2C139.3-42.9,92.2-68,39.3-68c-4.7,0-9.4,0.3-14,0.6    C16.5-47.1,12-25.3,12-2.7C12,31.7,22.8,63.9,41,90.3C55.6,85.9,70.1,83.4,84.7,82.9z" id="XMLID_248_"/>
		<path class="st0" d="M331.5,191.4c-3-4.1-6.1-8.3-9.4-12.1c-13.8-16-29.5-28.4-46.8-37.4    c-11.6,8-24,14.3-37.4,19.3c7.7,11.3,13.8,23.7,18.4,36.6C280.8,201.6,306.4,199.4,331.5,191.4z" id="XMLID_247_"/>
	</g>
	<path class="st0" d="M137.9,100.8c0.3,9.9,1.4,20.1,3.3,30c-6.9,6.3-13.2,13.5-19,20.9   C93,141.5,67.4,123.1,48.4,99.4C76.8,91.7,107.6,91.7,137.9,100.8z" id="XMLID_245_"/>
	<path class="st0" d="M175.6,104.6c-8.5-4.7-17.3-8.8-26.7-11.8c0.6-24.2,6.6-48.2,17.9-70.5   c3-5.8,6.3-11.3,9.9-16.8c16.5,25.1,26.4,54.5,27,86.5C193.8,95.3,184.4,99.7,175.6,104.6z" id="XMLID_244_"/>
	<path class="st0" d="M154.1,170.5L154.1,170.5l0.8,0.3c4.1,8.8,9.1,17.6,14.9,25.6c-14.9,19.6-33.9,35.5-56.2,46.8   c-5.5,2.8-11,5.2-16.5,7.4c1.4-30,11-59.8,29.2-85.9C135.4,167.4,144.5,169.4,154.1,170.5z" id="XMLID_243_"/>
	<path class="st0" d="M197.6,170.7c9.9-1.1,19.6-3.3,29.2-6.1c13.8,20.1,23.1,43,27,67.7c0.8,6.1,1.7,12.1,1.9,18.2   c-28.1-10.5-53.4-28.6-72.7-54C188.6,188.4,193.5,179.8,197.6,170.7z" id="XMLID_242_"/>
	<path class="st0" d="M211.1,130c1.9-9.9,3-19.8,3.3-30c23.1-6.9,47.6-8.5,72.1-4.7c6.1,1.1,12.1,2.2,18.2,3.9   C286.3,122.5,261,141,231,151.7C225.2,144,218.6,136.6,211.1,130z" id="XMLID_241_"/>
	<path class="st1" d="M363.7,28.7c21.5,6.9,40.8,17.9,57.3,32.5c-1.1,4.7-2.2,9.1-3.9,13.5l0,0   c-7.2,22-18.4,41.3-33,57.8c-17.6-17.6-38.5-31.1-62-39.9c3.6-5.5,6.9-11,9.9-17.1c8.3-16.2,14-33.6,16.8-50.9   C354,25.6,358.7,27,363.7,28.7z" id="XMLID_240_"/>
	<path class="st1" d="M128.5-72.7c13.2-18.2,29.5-33,48.7-44.6c4.1,2.5,8,5,11.6,7.7c18.7,13.5,33.6,30.3,44.6,49   c-22.3,11.3-41.6,27-57.3,46.3c-4.1-5.2-8.5-10.2-13.2-14.9c-12.7-12.7-27.3-23.4-42.7-31.4C123-64.4,125.5-68.5,128.5-72.7z" id="XMLID_239_"/>
	<path class="st1" d="M-68.9,60.6c3.6-3,7.2-6.1,11-8.8C-38.9,38-18,28.9,3.5,24.2c3.9,24.5,12.9,47.6,26.7,68.3   c-6.6,2.5-12.9,5.2-19,8.3c-16.2,8.3-30.8,18.7-43.5,31.1c-3.3-3.9-6.3-7.7-9.4-11.6C-54.6,102.4-63.9,82.1-68.9,60.6z" id="XMLID_238_"/>
	<path class="st1" d="M90.2,341.5c-21.5,6.9-43.5,9.4-65.5,7.4c-1.9-4.4-3.6-8.8-5-13.2l0,0   c-7.2-22-9.4-44.6-7.2-66.4c8.8,1.4,17.6,1.9,26.7,1.9c15.7,0,31.4-2.2,46.8-6.3c0.3,6.6,0.8,13.5,1.9,20.1   c2.8,18.2,8.5,35.2,16.5,51.2C99.6,338.2,94.9,339.8,90.2,341.5z" id="XMLID_237_"/>
	<path class="st1" d="M340.5,284.2c0,22.6-4.4,44.1-13.2,64.7c-4.7,0.3-9.4,0.6-14,0.6c-23.1,0-45.2-5-65.3-13.5   c11.3-22.3,17.6-46.3,18.4-71c6.3,1.7,12.7,3,19.3,4.1c9.4,1.4,18.4,2.2,27.8,2.2c8.8,0,17.6-0.6,26.2-1.9   C340.3,274,340.5,279.2,340.5,284.2z" id="XMLID_236_"/>
	<g id="XMLID_223_">
		<path class="st2" d="M430.9,69.1c-0.8,3-1.7,6.3-2.8,9.4l0,0c-7.7,23.4-19.8,44.6-35.8,62.5    c3.6,4.1,7.2,8.5,10.5,13.2c12.9,17.9,22.3,37.7,27.8,58.9c6.6-22.9,9.9-47.1,9.9-72.1C440.8,115.9,437.5,92,430.9,69.1z" id="XMLID_235_"/>
		<path class="st2" d="M314.1,360.7c-24.8,0-48.7-5-70.5-14.9c-2.8,5-6.1,9.6-9.4,14.3    c-12.9,17.9-28.9,33-47.4,44.6c50.7-1.9,97.5-18.2,136.9-44.6C320.4,360.7,317.1,360.7,314.1,360.7z" id="XMLID_234_"/>
		<path class="st2" d="M158.3,399.6L158.3,399.6c-19.8-14.6-36.3-32.8-48.5-53.4c-5.2,2.2-10.5,4.1-16,6.1    c-21.2,6.9-43.2,9.6-65.3,8.3c39.7,26.7,86.7,42.7,137.4,44.6C163.8,403.4,161,401.5,158.3,399.6z" id="XMLID_233_"/>
		<path class="st2" d="M40.1-79.6c24.8,0,49,5.2,71,14.9c2.8-4.7,5.8-9.4,9.1-14c13.2-18.2,29.2-33,47.9-44.9    C117-122,69.6-106,29.7-79.3C33-79.6,36.6-79.6,40.1-79.6z" id="XMLID_232_"/>
		<path class="st2" d="M416.8,238.2c-19.8,14.6-42.1,24.5-65.5,29.5c0.6,5.5,0.8,11.3,0.8,17.1    c0,22-4.1,43.5-11.8,63.6c38-30,67.5-69.9,84.3-116.2C422.1,234.3,419.6,236.3,416.8,238.2z" id="XMLID_231_"/>
		<path class="st2" d="M9.8,339.5L9.8,339.5c-7.7-23.7-10.2-47.9-7.7-71.9c-5.5-1.1-11.3-2.8-16.8-4.7    c-21.2-6.9-40.8-17.6-57.8-31.7c17.1,46.8,47.1,87.6,85.6,117.9C12,346.1,10.9,342.8,9.8,339.5z" id="XMLID_230_"/>
		<path class="st2" d="M196-117.8c19.8,14.6,36.3,32.5,48.2,53.1c5-2.2,9.9-3.9,14.9-5.5    c21.2-6.9,43.2-9.6,65.3-8.3c-39.4-26.7-86.2-43-136.9-45.2C190.5-121.7,193.2-119.8,196-117.8z" id="XMLID_229_"/>
		<path class="st2" d="M-75.2,203.2L-75.2,203.2c7.7-23.7,19.8-44.9,36.1-62.8c-3.6-4.1-7.2-8.5-10.5-13.2    c-13.2-18.2-22.6-38.5-28.1-60c-6.6,23.4-10.2,47.9-10.2,73.5c0,25.1,3.6,49.6,10.2,72.7C-77.2,210.1-76.3,206.5-75.2,203.2z" id="XMLID_228_"/>
		<path class="st2" d="M-63.7,43.5L-63.7,43.5C-43.6,28.9-21,19,2.7,13.8C2.1,8,1.9,2.2,1.9-3.6    c0-22.3,4.1-44.1,12.4-64.7C-24.6-38-54.9,2.8-72.2,50.1C-69.5,47.9-66.7,45.4-63.7,43.5z" id="XMLID_227_"/>
		<path class="st2" d="M343.3-57.3L343.3-57.3c7.7,23.4,10.2,47.9,7.7,71.6c5.5,1.1,11,2.8,16.5,4.4    c21.2,6.9,40.2,17.3,57.3,31.4c-17.1-46.5-46.8-87-84.8-117C341.1-63.9,342.2-60.6,343.3-57.3z" id="XMLID_225_"/>
	</g>
	<g id="XMLID_220_">
		<path class="st0" d="M190.5,162.2c9.9-0.8,19.6-2.5,29.2-5c-6.1-7.7-12.9-14.9-20.7-21.5    c2.2-9.6,3.6-19.3,4.1-29.2c-9.1,3.6-18.2,7.7-26.7,13.2l0,0l0,0c-8.5-5.2-17.3-9.6-26.7-12.9c0.6,9.6,1.9,19.6,4.1,29.2    c-7.4,6.6-14.6,13.8-20.9,21.5c9.6,2.5,19.3,4.4,29.5,5.2c3.9,9.1,8.5,17.9,14,26.4C181.7,180.4,186.3,171.6,190.5,162.2    C190.2,162.5,190.2,162.5,190.5,162.2C190.2,162.2,190.5,162.2,190.5,162.2z" id="XMLID_222_"/>
	</g>
</g>
</svg>