<?xml version="1.0" encoding="UTF-8" standalone="no"?>
<svg
   version="1.0"
   width="364.66699"
   height="272.66699"
   viewBox="0 0 273.50024 204.50025"
   preserveAspectRatio="xMidYMid"
   id="svg162"
   sodipodi:docname="IIM MUMBAI2.svg"
   inkscape:version="1.2.2 (732a01da63, 2022-12-09)"
   xmlns:inkscape="http://www.inkscape.org/namespaces/inkscape"
   xmlns:sodipodi="http://sodipodi.sourceforge.net/DTD/sodipodi-0.dtd"
   xmlns="http://www.w3.org/2000/svg"
   xmlns:svg="http://www.w3.org/2000/svg">
  <defs
     id="defs166" />
  <sodipodi:namedview
     id="namedview164"
     pagecolor="#ffffff"
     bordercolor="#000000"
     borderopacity="0.25"
     inkscape:showpageshadow="false"
     inkscape:pageopacity="0.0"
     inkscape:pagecheckerboard="0"
     inkscape:deskcolor="#d1d1d1"
     inkscape:document-units="px"
     showgrid="false"
     showborder="false"
     inkscape:zoom="0.8359833"
     inkscape:cx="522.73771"
     inkscape:cy="188.99899"
     inkscape:window-width="1366"
     inkscape:window-height="705"
     inkscape:window-x="-8"
     inkscape:window-y="-8"
     inkscape:window-maximized="1"
     inkscape:current-layer="svg162" />
  <metadata
     id="metadata130">
Created by potrace 1.16, written by Peter Selinger 2001-2019
</metadata>
  <g
     transform="matrix(0.01818881,0,0,-0.01765865,-0.27487477,203.75843)"
     fill="#000000"
     stroke="none"
     id="g160"
     style="fill:#000055">
    <path
       d="m 7295,11111 c -740,-361 -1361,-799 -1756,-1238 -168,-186 -282,-341 -384,-523 -26,-47 -49,-86 -50,-88 -2,-2 -33,-10 -70,-17 -199,-42 -380,-203 -451,-400 -24,-68 -28,-72 -87,-85 -169,-37 -462,-165 -661,-288 -528,-325 -932,-848 -1100,-1422 -16,-52 -31,-103 -35,-114 -5,-12 -35,-28 -89,-46 -107,-36 -181,-81 -257,-157 -66,-66 -118,-153 -146,-243 l -17,-55 -163,-55 c -90,-31 -202,-73 -249,-94 C 1348,6094 957,5752 688,5335 420,4916 275,4421 282,3943 l 3,-178 h 7215 7215 l 9,60 c 14,88 -8,401 -39,570 -96,523 -326,969 -695,1349 -212,218 -430,378 -686,503 -185,90 -281,127 -451,172 -27,8 -43,17 -43,27 0,32 -54,151 -96,210 -85,120 -220,215 -350,245 l -52,12 -21,76 c -69,242 -210,549 -339,736 -355,514 -858,874 -1454,1039 -55,16 -57,17 -71,65 -21,71 -79,171 -137,234 -85,93 -190,148 -369,196 -16,4 -35,26 -58,71 -114,214 -288,438 -527,675 -382,379 -819,686 -1456,1022 -84,45 -376,184 -382,183 -2,-1 -93,-45 -203,-99 z m 337,-412 c 304,-152 649,-365 948,-583 263,-192 553,-458 704,-646 75,-95 206,-288 206,-306 0,-6 -35,-47 -79,-90 -77,-78 -123,-149 -151,-239 -17,-53 -25,-62 -63,-71 -18,-3 -79,-21 -137,-40 -378,-119 -772,-364 -1029,-639 -125,-134 -313,-408 -482,-699 -19,-33 -39,-61 -44,-62 -6,-2 -38,54 -72,124 -67,135 -176,307 -283,443 -82,105 -279,303 -390,392 -266,214 -609,392 -914,472 l -79,21 -26,70 c -38,102 -94,187 -166,251 -43,38 -61,61 -57,72 3,9 38,66 78,126 300,456 910,943 1724,1377 91,48 171,88 178,88 7,0 67,-27 134,-61 z M 4654,8311 c 71,-116 217,-220 356,-255 l 55,-13 3,-295 2,-294 -57,-24 c -110,-45 -200,-165 -210,-281 -3,-32 -11,-63 -18,-69 -10,-9 -526,-186 -1188,-408 -238,-80 -259,-86 -268,-69 -32,55 -113,147 -166,187 -34,25 -62,52 -62,60 -1,17 66,218 94,285 128,302 329,576 579,792 222,190 481,335 766,426 71,23 74,21 114,-42 z m 1154,33 c 352,-107 725,-352 967,-634 183,-214 318,-450 414,-723 43,-122 42,-127 -26,-172 -66,-44 -153,-131 -179,-181 -21,-38 -33,-41 -95,-18 -43,15 -210,72 -990,337 -202,69 -371,127 -376,130 -6,4 -13,32 -16,63 -11,110 -96,228 -197,276 l -49,23 -1,298 c 0,230 3,298 13,301 184,46 315,135 404,274 18,28 37,52 40,52 4,0 45,-12 91,-26 z m 3515,-16 c 39,-65 108,-139 170,-181 62,-43 186,-97 222,-97 13,0 26,-7 29,-16 9,-22 7,-557 -2,-570 -4,-6 -18,-15 -32,-19 -39,-12 -105,-61 -144,-107 -43,-49 -72,-122 -79,-198 -4,-30 -6,-56 -7,-56 -1,-4 -56,-23 -475,-166 -869,-296 -936,-318 -948,-318 -7,0 -34,29 -60,64 -55,74 -106,123 -171,161 -25,15 -46,33 -46,40 0,33 88,263 145,380 221,449 583,800 1037,1007 113,52 289,116 320,117 9,1 27,-18 41,-41 z m 1151,21 c 243,-72 521,-223 721,-391 106,-89 255,-239 321,-323 146,-186 276,-428 349,-648 l 47,-142 -28,-20 c -56,-39 -154,-139 -185,-187 -17,-26 -35,-48 -40,-48 -12,0 -140,43 -1068,359 -211,72 -385,131 -386,131 -1,0 -5,30 -8,66 -10,126 -87,236 -204,291 l -53,24 v 290 c 0,223 3,290 13,293 71,18 168,56 209,81 66,42 153,128 195,193 18,28 36,52 40,52 3,0 38,-10 77,-21 z M 5721,6809 c 145,-50 352,-120 459,-156 107,-35 202,-67 210,-70 8,-3 110,-38 225,-77 116,-39 208,-75 205,-81 -3,-5 -48,-24 -100,-41 -392,-127 -711,-324 -1010,-624 -212,-212 -352,-405 -484,-668 -31,-61 -60,-112 -64,-112 -4,1 -33,54 -64,118 -76,157 -122,232 -242,392 -108,145 -306,351 -440,458 -159,127 -357,249 -546,336 -107,49 -321,126 -352,126 -10,0 -18,6 -18,13 0,7 133,57 333,124 182,62 487,165 677,230 l 346,117 44,-45 c 25,-24 68,-56 95,-69 44,-22 63,-25 160,-25 101,0 114,2 164,28 29,16 72,48 95,72 22,24 41,44 42,45 1,0 120,-41 265,-91 z m 3870,50 c 23,-23 66,-53 98,-68 48,-22 69,-26 151,-26 82,0 103,4 152,27 31,14 76,44 100,66 l 44,40 84,-28 c 47,-16 339,-115 650,-220 311,-105 581,-197 600,-203 19,-7 34,-16 33,-21 -1,-6 -35,-20 -75,-31 -197,-58 -443,-175 -635,-301 -165,-109 -291,-214 -433,-361 -191,-197 -319,-375 -448,-623 -35,-69 -67,-126 -71,-127 -3,-1 -33,53 -66,120 -190,384 -502,736 -871,983 -195,130 -447,250 -643,307 -42,12 -77,27 -78,32 0,6 209,81 465,168 257,87 564,191 682,232 118,40 216,74 218,74 1,1 20,-17 43,-40 z M 3510,5989 c 517,-170 981,-576 1224,-1069 119,-242 201,-512 209,-690 l 2,-55 -881,-3 -882,-2 -4,82 c -7,147 -74,252 -203,315 l -55,27 2,555 3,555 72,28 c 40,15 97,43 125,61 64,41 155,135 192,199 32,56 19,56 196,-3 z m 3473,-4 c 45,-71 117,-145 180,-186 56,-36 162,-82 220,-94 l 27,-5 v -564 -563 l -62,-31 c -119,-58 -186,-158 -197,-290 l -6,-77 -882,-3 -883,-2 v 37 c 0,58 54,308 89,414 139,415 398,782 736,1040 143,109 355,233 490,285 80,30 235,82 250,83 6,1 23,-19 38,-44 z m 1205,5 c 572,-189 1072,-663 1301,-1235 68,-171 108,-328 136,-537 l 6,-48 h -885 -886 v 49 c 0,27 -9,79 -20,115 -26,83 -105,173 -186,211 l -54,26 v 565 c 0,443 3,565 13,568 180,46 311,135 402,272 20,30 40,54 44,54 5,0 63,-18 129,-40 z m 3512,-16 c 66,-104 192,-203 313,-245 l 67,-24 v -557 -557 l -54,-26 c -59,-28 -133,-101 -164,-161 -25,-49 -44,-140 -40,-191 l 3,-38 -882,-3 -883,-2 v 31 c 0,90 48,305 106,472 206,601 735,1124 1333,1318 156,51 158,50 201,-17 z m -9425,5 c 90,-138 235,-237 397,-273 l 53,-11 v -550 -550 l -50,-26 c -80,-42 -131,-93 -167,-167 -28,-55 -34,-80 -37,-149 l -3,-83 h -884 c -862,0 -884,0 -884,19 0,45 43,264 71,360 102,353 288,667 550,930 168,167 343,292 564,402 120,59 315,136 351,138 6,1 24,-18 39,-40 z m 10555,22 c 218,-63 481,-205 691,-372 154,-122 344,-333 451,-499 90,-141 163,-289 221,-450 46,-128 103,-366 109,-455 l 3,-50 h -885 -884 l 2,50 c 4,69 -22,157 -64,220 -39,60 -83,97 -149,126 l -45,20 v 553 554 l 46,7 c 61,9 168,53 227,94 63,43 137,118 173,175 16,25 31,46 34,46 3,0 34,-8 70,-19 z"
       id="path132"
       style="fill:#000055" />
    <path
       d="m 7444,10287 c -89,-48 -154,-92 -154,-105 0,-7 -4,-11 -9,-8 -11,7 -88,-52 -143,-109 -33,-34 -85,-118 -98,-159 -19,-58 -2,-159 31,-186 3,-3 13,-18 22,-35 34,-67 216,-209 369,-290 l 38,-19 52,27 c 112,57 227,132 235,153 3,8 11,14 17,14 26,0 113,111 147,185 32,69 19,181 -27,230 -13,14 -24,30 -24,34 0,24 -177,181 -205,181 -7,0 -16,7 -19,15 -5,15 -163,96 -182,94 -5,0 -27,-10 -50,-22 z"
       id="path134"
       style="fill:#ff6600" />
    <path
       d="m 8155,3567 c -82,-33 -117,-86 -120,-180 -1,-38 -7,-62 -16,-68 -8,-5 -308,-9 -694,-9 -374,0 -686,0 -692,0 -7,0 -13,-11 -13,-25 v -25 l 273,-2 272,-3 3,-62 3,-63 h -120 c -117,0 -121,-1 -137,-25 -15,-23 -15,-25 25,-63 50,-47 55,-89 16,-127 -70,-71 -184,9 -216,151 l -12,51 -29,-11 c -28,-10 -29,-13 -23,-51 9,-60 64,-153 111,-187 79,-57 186,-46 238,25 26,35 27,104 3,141 -10,14 -17,28 -17,31 0,3 35,5 78,3 l 77,-3 3,-172 2,-173 h 30 30 l 2,268 3,267 126,3 c 143,3 156,-3 166,-75 6,-49 -21,-85 -83,-109 -45,-17 -45,-18 -39,-53 18,-93 87,-158 179,-168 60,-6 115,8 141,37 10,11 22,20 27,20 4,0 8,-43 8,-96 v -95 l 33,3 32,3 v 265 l 1,265 102,3 c 99,3 102,2 107,-21 4,-13 5,-34 4,-48 -1,-13 -1,-124 -1,-246 l 2,-223 h 30 30 l 2,268 3,267 h 235 235 l 3,-62 c 3,-73 4,-72 -113,-71 -92,1 -130,-13 -166,-63 -52,-73 -30,-213 46,-297 l 42,-46 27,17 27,18 -39,44 c -42,48 -62,100 -62,164 0,34 6,49 29,72 28,28 33,29 120,29 h 91 v -170 -170 h 30 c 17,0 31,6 32,13 1,6 2,127 2,267 l 1,255 55,5 c 48,4 55,8 58,28 l 3,22 h -314 c -174,0 -322,3 -331,6 -21,8 -22,94 0,139 46,99 227,81 357,-35 l 48,-43 22,22 22,22 -44,40 c -73,65 -174,110 -262,115 -46,2 -85,-1 -104,-9 z m -395,-422 c 0,-126 -10,-164 -53,-204 -31,-28 -104,-39 -147,-21 -37,15 -80,64 -80,91 0,13 12,25 34,34 69,29 100,102 72,170 -9,20 -16,39 -16,41 0,2 43,4 95,4 h 95 z"
       id="path136"
       style="fill:#000055" />
    <path
       d="m 10061,3553 c -86,-16 -133,-130 -81,-196 11,-14 20,-30 20,-36 0,-8 -145,-11 -500,-11 h -500 v -25 -25 h 115 115 v -104 c 0,-97 -2,-106 -22,-120 -30,-21 -56,-20 -97,5 l -34,20 -20,-20 c -24,-23 -35,-3 111,-195 103,-135 104,-135 128,-119 13,8 24,18 24,21 0,4 -34,50 -75,104 -41,54 -75,102 -75,107 0,19 76,25 230,19 l 85,-3 3,-128 3,-128 32,3 32,3 1,265 1,265 231,3 232,2 v -135 c 0,-148 -7,-176 -56,-214 -29,-23 -92,-28 -125,-11 -26,15 -49,62 -49,104 0,53 36,88 96,95 40,5 50,10 52,27 5,37 -20,47 -83,34 -99,-21 -141,-76 -133,-180 4,-49 10,-66 34,-91 56,-61 134,-75 213,-39 24,11 45,20 47,20 2,0 4,-33 6,-72 l 3,-73 h 30 30 l 3,268 2,267 233,-2 232,-3 3,-65 c 2,-36 0,-80 -3,-99 l -6,-34 -30,36 c -55,66 -174,86 -258,43 -36,-19 -39,-36 -12,-60 18,-16 22,-16 50,-2 64,34 146,17 193,-39 32,-37 22,-50 -102,-125 -66,-39 -120,-75 -120,-79 0,-10 34,-41 45,-41 5,0 58,32 117,71 60,40 111,69 115,66 3,-4 6,-45 5,-93 0,-48 2,-93 5,-101 3,-7 18,-13 34,-13 h 29 l 2,268 3,267 53,3 c 48,3 52,5 52,28 v 24 l -292,1 c -161,0 -306,2 -322,4 -36,5 -83,49 -91,85 -14,64 43,113 105,91 28,-9 32,-8 39,12 6,14 5,26 -2,33 -14,14 -73,23 -106,17 z m -576,-403 v -105 l -48,-9 c -28,-5 -66,-5 -90,0 l -42,9 -3,108 -3,108 93,-3 93,-3 z"
       id="path138"
       style="fill:#000055" />
    <path
       d="m 4272,3288 3,-23 278,-3 277,-2 v -50 -50 h -202 c -219,0 -262,-7 -298,-45 -19,-21 -22,-31 -18,-77 5,-45 11,-57 43,-85 43,-37 65,-40 121,-17 40,17 95,14 120,-7 8,-6 14,-26 14,-43 0,-41 -31,-70 -88,-86 -40,-10 -46,-9 -77,15 -45,34 -87,42 -108,20 -38,-37 -7,-83 62,-92 33,-5 51,-17 101,-69 54,-56 64,-62 81,-51 10,6 19,14 19,17 0,3 -18,25 -40,48 -40,43 -44,62 -13,62 8,0 32,9 53,21 94,53 95,180 0,219 -29,12 -131,10 -176,-5 -47,-15 -79,81 -35,105 12,6 104,10 230,10 h 211 l 2,-187 3,-188 33,-3 32,-3 v 271 271 l 118,-3 117,-3 3,-267 2,-268 h 30 30 l 2,268 3,267 228,3 227,2 v -90 -90 h -123 c -118,0 -125,-1 -146,-24 -27,-29 -24,-57 10,-100 14,-17 29,-26 43,-24 17,2 22,11 24,45 4,49 5,49 113,45 l 79,-4 v -149 -149 h 35 35 v 270 270 h 115 115 v -108 c 0,-96 -2,-111 -20,-127 -26,-24 -26,-69 1,-112 18,-29 26,-34 53,-31 32,3 32,2 35,76 1,21 4,22 111,22 h 110 v -130 -130 h 35 35 v 269 270 l 48,3 c 40,3 47,6 50,26 l 3,22 H 5345 4269 Z m 1978,-138 v -110 h -110 c -66,0 -110,4 -110,10 -1,6 -1,46 -1,90 0,44 0,89 1,100 0,19 7,20 110,20 h 110 z"
       id="path140"
       style="fill:#000055" />
    <path
       d="m 297,2333 c -4,-3 -7,-444 -7,-980 V 380 h 195 195 v 980 980 H 492 c -104,0 -192,-3 -195,-7 z"
       id="path142"
       style="fill:#000055" />
    <path
       d="m 1557,2333 c -4,-3 -7,-444 -7,-980 V 380 h 195 195 v 980 980 h -188 c -104,0 -192,-3 -195,-7 z"
       id="path144"
       style="fill:#000055" />
    <path
       d="m 2817,2333 c -4,-3 -7,-444 -7,-980 V 380 h 185 185 v 800 c 0,495 4,800 9,800 6,0 60,-154 122,-342 61,-189 129,-395 149,-458 21,-63 89,-269 150,-457 l 111,-343 h 189 188 l 31,98 c 44,135 234,718 352,1077 54,165 108,331 119,368 12,38 25,65 28,62 10,-9 10,-18 11,-837 l 1,-768 h 185 185 l -2,978 -3,977 -306,3 c -238,2 -309,-1 -316,-10 -6,-7 -27,-67 -47,-133 -65,-210 -137,-439 -151,-480 -8,-22 -30,-94 -50,-160 -20,-66 -54,-174 -75,-240 -21,-66 -62,-194 -90,-285 -29,-91 -54,-167 -56,-169 -9,-9 -17,14 -80,215 -36,115 -91,292 -124,394 -59,186 -230,734 -256,823 l -15,47 h -308 c -169,0 -311,-3 -314,-7 z"
       id="path146"
       style="fill:#000055" />
    <path
       d="m 11720,2331 -225,-6 -3,-602 -2,-603 22,-5 c 13,-3 145,-5 293,-3 263,3 271,4 319,27 68,34 147,115 182,186 26,53 29,71 29,151 0,82 -3,94 -28,133 -33,50 -102,96 -174,117 -29,9 -53,17 -53,19 0,2 23,11 51,20 70,24 143,95 159,155 7,25 12,70 11,100 -2,109 -95,246 -198,292 -55,24 -95,26 -383,19 z m 208,-196 c 60,-18 114,-61 132,-105 27,-65 -32,-155 -117,-180 -51,-15 -155,-24 -187,-16 l -26,6 v 143 c 0,98 4,147 12,155 17,17 124,15 186,-3 z m 34,-487 c 20,-6 53,-24 73,-40 112,-93 80,-236 -67,-292 -32,-12 -68,-16 -138,-14 l -95,3 v 175 175 l 40,6 c 48,8 135,2 187,-13 z"
       id="path148"
       style="fill:#000055" />
    <path
       d="m 5885,2318 c -3,-7 -4,-281 -3,-608 l 3,-595 h 110 110 l 3,488 c 1,296 6,487 12,487 7,0 232,-671 312,-930 6,-19 16,-38 22,-42 20,-13 213,-9 223,5 6,6 54,147 108,312 183,566 217,665 225,660 4,-3 9,-222 9,-487 1,-264 4,-485 7,-490 3,-4 52,-8 110,-8 h 104 v 610 610 l -192,-2 -191,-3 -23,-70 c -12,-38 -43,-137 -69,-220 -26,-82 -68,-217 -94,-300 -26,-82 -61,-190 -76,-240 l -29,-89 -14,34 c -8,19 -22,62 -32,95 -10,33 -55,177 -100,320 -45,143 -97,307 -115,365 l -33,105 -191,3 c -148,2 -193,0 -196,-10 z"
       id="path150"
       style="fill:#000055" />
    <path
       d="m 7875,2320 c -3,-5 -4,-18 -1,-28 3,-10 2,-134 -3,-277 -14,-404 4,-574 75,-722 39,-81 89,-131 174,-172 54,-25 60,-26 250,-26 h 195 l 67,33 c 106,51 167,139 209,297 27,102 34,299 24,649 l -7,257 -117,-3 -116,-3 1,-170 c 0,-93 2,-255 3,-360 3,-262 -21,-377 -97,-457 -37,-40 -111,-62 -188,-55 -198,15 -259,190 -234,672 6,116 10,246 8,290 l -3,80 -117,3 c -73,2 -119,-1 -123,-8 z"
       id="path152"
       style="fill:#000055" />
    <path
       d="m 9497,2323 c -4,-3 -7,-275 -7,-604 v -599 l 23,-5 c 12,-3 63,-5 112,-3 l 90,3 3,493 c 1,270 6,492 11,492 5,0 37,-87 71,-192 34,-106 104,-322 156,-479 52,-157 94,-290 94,-296 0,-18 27,-23 125,-23 97,0 125,5 125,22 0,6 55,178 121,382 67,204 137,419 157,479 19,59 38,105 41,101 3,-3 8,-225 11,-492 l 5,-487 90,-3 c 50,-2 100,0 113,3 l 22,5 -2,603 -3,602 h -195 -194 l -12,-40 c -105,-339 -266,-849 -274,-863 -4,-9 -15,10 -28,50 -28,83 -210,659 -228,723 -8,28 -22,69 -30,93 l -16,42 h -187 c -103,0 -191,-3 -194,-7 z"
       id="path154"
       style="fill:#000055" />
    <path
       d="m 13244,2293 c -8,-21 -37,-94 -64,-163 -97,-253 -149,-389 -215,-555 -36,-93 -77,-197 -90,-230 -12,-33 -34,-89 -48,-125 -47,-122 -55,-110 75,-110 62,0 118,4 124,8 7,4 34,66 62,137 l 50,130 h 253 253 l 46,-125 c 25,-69 49,-131 53,-137 9,-14 252,-19 260,-5 3,4 -14,54 -38,112 -39,99 -156,393 -248,630 -22,58 -72,186 -112,285 l -71,180 -137,3 -136,3 z m 184,-300 c 17,-49 55,-158 85,-243 30,-85 53,-158 50,-162 -2,-5 -81,-8 -175,-8 h -170 l 5,30 c 9,44 161,470 168,470 4,0 20,-39 37,-87 z"
       id="path156"
       style="fill:#000055" />
    <path
       d="m 14507,2323 c -4,-3 -7,-275 -7,-604 v -599 l 23,-5 c 12,-3 65,-5 117,-3 l 95,3 3,608 2,607 h -113 c -63,0 -117,-3 -120,-7 z"
       id="path158"
       style="fill:#000055" />
  </g>
</svg>
