<svg xmlns="http://www.w3.org/2000/svg" xmlns:svg="http://www.w3.org/2000/svg" width="353.3127962199913" height="283.03531904271784" viewBox="0 0 97.14653 77.842537" version="1.1" id="svg1" xml:space="preserve"><defs id="defs1"/><g id="layer1" transform="translate(-56.201736,-109.50998)" style="display:inline"><path style="display:inline;fill:#383431;fill-opacity:1" d="m 136.87397,178.64845 c -0.24486,-0.0515 -0.50124,-0.2668 -0.62485,-0.5246 -0.0849,-0.17711 -0.12205,-0.35227 -0.12205,-0.57573 0,-0.28201 0.0684,-0.52579 0.20044,-0.71438 0.2057,-0.29378 0.47487,-0.43709 0.82094,-0.43709 0.19105,0 0.2928,0.0254 0.48301,0.12069 l 0.15819,0.0792 -0.006,-0.31587 c -0.005,-0.29724 -0.008,-0.3208 -0.0481,-0.39965 -0.0505,-0.10003 -0.1061,-0.14392 -0.2056,-0.16239 -0.12144,-0.0225 -0.22757,0.01 -0.31264,0.0947 -0.0403,0.0403 -0.0782,0.0928 -0.0841,0.11663 -0.006,0.0238 -0.0197,0.0434 -0.0305,0.0434 -0.0334,0 -0.84685,-0.16871 -0.8793,-0.18236 -0.0272,-0.0115 -0.0214,-0.0258 0.0528,-0.13115 0.14537,-0.20618 0.35225,-0.37814 0.5717,-0.47519 0.23367,-0.10333 0.60567,-0.15504 0.91079,-0.1266 0.33789,0.0315 0.57418,0.11993 0.75312,0.28186 0.12539,0.11347 0.19708,0.22418 0.254,0.39224 l 0.0444,0.13113 0.006,1.01177 0.006,1.01176 h 0.15989 0.1599 v 0.36407 0.36407 h -0.67733 -0.67734 v -0.127 c 0,-0.0699 -0.006,-0.127 -0.014,-0.127 -0.008,0 -0.0318,0.019 -0.0536,0.0422 -0.0653,0.0695 -0.23848,0.17305 -0.35576,0.21272 -0.12385,0.0419 -0.36801,0.0582 -0.48923,0.0326 z m 0.74385,-0.75352 c 0.0243,-0.0125 0.0721,-0.0517 0.10642,-0.087 l 0.0623,-0.0641 v -0.27223 -0.27222 l -0.0635,-0.0617 c -0.0775,-0.0753 -0.13309,-0.0976 -0.24324,-0.0976 -0.13833,0 -0.2207,0.0606 -0.28795,0.21187 -0.0497,0.11187 -0.0544,0.35058 -0.009,0.46892 0.0338,0.0884 0.12275,0.17689 0.19362,0.19251 0.0254,0.006 0.0539,0.013 0.0632,0.0164 0.0274,0.01 0.13069,-0.0102 0.17842,-0.0349 z m 6.51871,0.74776 c -0.23615,-0.0643 -0.42194,-0.23287 -0.55638,-0.50485 -0.15563,-0.31486 -0.22005,-0.64473 -0.23454,-1.20106 -0.0233,-0.89468 0.13099,-1.39584 0.51999,-1.68893 0.12874,-0.097 0.25038,-0.14021 0.42333,-0.15037 0.28454,-0.0167 0.49496,0.0851 0.67259,0.3255 l 0.0375,0.0508 5.4e-4,-0.55456 5.3e-4,-0.55457 h -0.16086 -0.16087 v -0.36407 -0.36406 h 0.67733 0.67734 v 2.12513 2.12513 h 0.16933 0.16933 v 0.36407 0.36407 h -0.6858 -0.6858 v -0.13729 -0.1373 l -0.10305,0.0954 c -0.1161,0.10749 -0.22366,0.16767 -0.36589,0.20472 -0.11532,0.03 -0.2889,0.031 -0.39466,0.002 z m 0.64443,-0.72203 c 0.0762,-0.0212 0.14179,-0.0892 0.17977,-0.18652 0.026,-0.0665 0.0304,-0.15583 0.0356,-0.71647 0.006,-0.68428 -0.004,-0.82887 -0.0688,-0.95881 -0.0523,-0.10486 -0.11312,-0.14511 -0.21704,-0.14357 -0.14468,0.002 -0.23287,0.1042 -0.26971,0.31206 -0.0287,0.16197 -0.0408,0.91785 -0.0189,1.17683 0.0297,0.34986 0.0695,0.45274 0.19716,0.5095 0.0619,0.0275 0.0845,0.0285 0.16183,0.007 z m -13.88629,0.33019 v -0.36407 h 0.16933 0.16933 v -1.7599 -1.75989 l -0.1651,0.003 -0.1651,0.003 -0.005,-0.36799 -0.005,-0.36799 h 0.96418 0.96419 l 0.01,0.0466 c 0.01,0.0475 0.29785,1.89367 0.29785,1.90919 0,0.005 0.0214,0.009 0.0475,0.009 h 0.0476 l 0.15226,-0.9779 0.15226,-0.9779 1.03633,-0.004 1.03632,-0.004 v 0.36419 0.3642 h -0.16086 -0.16087 v 1.76107 1.76106 h 0.16087 0.16086 v 0.36407 0.36407 h -0.88053 -0.88053 v -0.36407 -0.36407 h 0.127 0.127 v -1.79493 -1.79493 h -0.0405 c -0.0382,0 -0.0425,0.0107 -0.0758,0.1905 -0.0194,0.10477 -0.0657,0.35433 -0.10285,0.55456 -0.0371,0.20024 -0.19742,1.06892 -0.35616,1.9304 -0.15875,0.86149 -0.29257,1.58373 -0.29739,1.60499 -0.009,0.0378 -0.013,0.0385 -0.19836,0.0339 l -0.1896,-0.005 -0.36777,-1.9558 c -0.20228,-1.07569 -0.38451,-2.04534 -0.40496,-2.15477 l -0.0372,-0.19896 h -0.0485 -0.0484 v 1.79493 1.79493 h 0.127 0.127 v 0.36407 0.36407 h -0.64347 -0.64346 z m 8.61906,0 v -0.36407 h 0.19474 0.19473 v -0.99906 -0.99907 h -0.19473 -0.19474 v -0.37253 -0.37254 h 0.7112 0.7112 v 0.18768 c 0,0.10569 0.007,0.18521 0.0154,0.18203 0.008,-0.003 0.0502,-0.0531 0.0928,-0.11109 0.0846,-0.11523 0.20638,-0.20591 0.35048,-0.26091 0.11572,-0.0442 0.37522,-0.0608 0.5102,-0.0326 0.29603,0.0617 0.53689,0.30089 0.63837,0.63399 0.0557,0.183 0.0688,0.43275 0.069,1.31864 l 1.4e-4,0.8255 h 0.16934 0.16933 v 0.36407 0.36407 h -0.6858 -0.6858 v -1.19149 c 0,-0.71396 -0.007,-1.22685 -0.0167,-1.27972 -0.0263,-0.13876 -0.0622,-0.19845 -0.14259,-0.23738 -0.12544,-0.0607 -0.23644,-0.0409 -0.40328,0.0721 l -0.08,0.0542 -4.4e-4,0.9271 -4.4e-4,0.9271 h 0.14394 0.14393 v 0.36407 0.36407 h -0.85513 -0.85514 z m 7.2136,5.5e-4 v -0.36351 l 0.1905,-0.005 0.1905,-0.005 0.004,-0.99484 0.004,-0.99483 h -0.19487 -0.19487 v -0.37253 -0.37254 h 0.70274 0.70273 v 1.3716 1.3716 h 0.16933 0.16934 v 0.36407 0.36407 h -0.87207 -0.87207 z m 0.70915,-3.52452 c -0.17394,-0.0602 -0.32759,-0.2254 -0.38117,-0.40971 -0.082,-0.28213 0.0841,-0.61014 0.36211,-0.71495 0.13309,-0.0502 0.34665,-0.0422 0.47009,0.0174 0.25314,0.12239 0.3908,0.41192 0.32253,0.67839 -0.048,0.18732 -0.14769,0.31181 -0.32095,0.40075 -0.11046,0.0567 -0.33057,0.0704 -0.45261,0.0281 z m -4.17201,-1.76208 c -0.27097,-0.0333 -0.66443,-0.12933 -0.83253,-0.20322 l -0.0705,-0.031 0.19438,-0.32173 c 0.10691,-0.17695 0.20051,-0.33233 0.208,-0.34528 0.0112,-0.0193 0.0482,-0.0125 0.20635,0.0379 0.50483,0.16093 0.82107,0.096 0.93176,-0.19127 0.0321,-0.0832 0.0372,-0.1384 0.0445,-0.48045 0.005,-0.24504 0.002,-0.3926 -0.009,-0.40328 -0.0112,-0.0112 -0.0316,0.008 -0.0607,0.0579 -0.0657,0.11215 -0.23115,0.25682 -0.34536,0.30203 -0.0815,0.0322 -0.13074,0.0389 -0.29268,0.0395 -0.18526,7.3e-4 -0.20038,-0.002 -0.31068,-0.0541 -0.21282,-0.10079 -0.38637,-0.32273 -0.48734,-0.6232 -0.15542,-0.46252 -0.19114,-1.26113 -0.0817,-1.82796 0.0976,-0.50572 0.30506,-0.86073 0.58354,-0.99855 0.0927,-0.0459 0.1169,-0.0503 0.27929,-0.0508 0.15965,-5.2e-4 0.18733,0.004 0.27112,0.0453 0.1112,0.0546 0.26401,0.20197 0.35984,0.347 0.0381,0.0577 0.0756,0.10109 0.0833,0.0964 0.008,-0.005 0.0139,-0.1072 0.0139,-0.22773 v -0.21913 h 0.69426 0.69427 v 0.36407 0.36406 h -0.1778 -0.1778 l -1.4e-4,1.39277 c -8e-5,0.76626 -0.008,1.4768 -0.0167,1.57959 -0.0204,0.23062 -0.067,0.41807 -0.14477,0.58214 -0.24466,0.51639 -0.71159,0.78624 -1.34547,0.77756 -0.0885,-0.001 -0.18372,-0.005 -0.21166,-0.008 z m 0.49318,-2.29022 c 0.0555,-0.0252 0.0791,-0.0506 0.11482,-0.12363 0.0683,-0.13956 0.0824,-0.32707 0.0733,-0.96997 -0.007,-0.51304 -0.011,-0.56808 -0.0445,-0.6722 -0.0423,-0.13143 -0.11094,-0.21032 -0.19709,-0.22648 -0.17011,-0.0319 -0.2886,0.0936 -0.32892,0.34835 -0.0226,0.14279 -0.0226,1.14384 -4e-5,1.28693 0.0264,0.16712 0.0622,0.25972 0.12245,0.3167 0.0868,0.0821 0.14735,0.0915 0.25997,0.0403 z m 2.46168,1.921 v -0.3636 l 0.24102,-0.005 0.24102,-0.005 0.071,-0.29633 c 0.0391,-0.16298 0.0716,-0.31181 0.0722,-0.33072 6.7e-4,-0.0189 -0.14054,-0.43802 -0.31381,-0.93134 -0.17326,-0.49332 -0.34776,-0.99219 -0.38778,-1.10861 -0.16097,-0.46829 -0.29665,-0.84961 -0.3135,-0.88111 -0.0151,-0.0282 -0.0358,-0.0333 -0.13576,-0.0333 h -0.11793 v -0.36406 -0.36407 h 0.70273 0.70273 v 0.36407 0.36406 h -0.11006 c -0.0605,0 -0.11014,0.006 -0.11023,0.0127 -1.9e-4,0.0155 0.45899,1.34754 0.46795,1.35749 0.003,0.004 0.0102,0.003 0.0149,-0.001 0.008,-0.008 0.33014,-1.32837 0.33014,-1.35478 0,-0.008 -0.0495,-0.0139 -0.11007,-0.0139 h -0.11006 v -0.36406 -0.36407 h 0.61806 0.61807 v 0.36338 0.36338 l -0.1397,0.005 -0.1397,0.005 -0.52697,2.1082 c -0.28983,1.15951 -0.53158,2.12915 -0.53721,2.15477 l -0.0102,0.0466 h -0.50842 -0.50843 z m -25.2592,-1.1255 c -0.59398,-0.0947 -0.9416,-0.53322 -1.04779,-1.32183 -0.0472,-0.35022 -0.0337,-0.92202 0.0285,-1.21073 0.12504,-0.58036 0.43706,-0.9511 0.90725,-1.078 0.16234,-0.0438 0.50419,-0.0524 0.64856,-0.0163 0.2462,0.0616 0.50128,0.2292 0.65209,0.42859 0.22771,0.30104 0.33004,0.69628 0.33004,1.27466 v 0.2462 h -0.7864 c -0.43252,0 -0.78939,0.006 -0.79305,0.0127 -0.004,0.007 -7.1e-4,0.14224 0.007,0.30057 0.023,0.50332 0.0893,0.63478 0.32012,0.63493 0.17082,1.2e-4 0.27403,-0.0976 0.3291,-0.31153 0.0141,-0.055 0.029,-0.10324 0.0331,-0.1073 0.007,-0.007 0.81947,0.2913 0.83499,0.30682 0.004,0.004 -0.0287,0.0789 -0.0733,0.16577 -0.0658,0.12807 -0.11012,0.18694 -0.23432,0.31105 -0.1755,0.17536 -0.34264,0.27361 -0.56321,0.33107 -0.14733,0.0384 -0.45274,0.0556 -0.59219,0.0333 z m 0.48547,-2.3844 c -5e-4,-0.38107 -0.0895,-0.56765 -0.27067,-0.56765 -0.17993,0 -0.26127,0.18073 -0.27455,0.60999 l -0.005,0.15665 0.27517,-1e-5 0.27517,-1e-5 z m 2.58561,2.37453 c -0.22596,-0.0429 -0.40102,-0.13114 -0.56571,-0.2852 -0.26765,-0.25037 -0.43455,-0.60522 -0.50436,-1.0723 -0.0326,-0.21833 -0.0373,-0.71059 -0.009,-0.91763 0.0949,-0.68665 0.42716,-1.18072 0.87193,-1.29656 0.13012,-0.0339 0.36644,-0.0338 0.48436,2.7e-4 0.17522,0.0506 0.26308,0.12923 0.41695,0.37327 0.0163,0.0259 0.0204,-0.004 0.0212,-0.15851 l 0.001,-0.1905 h 0.37253 0.37253 v 0.69427 0.69426 h -0.3696 -0.36961 l -0.0208,-0.15873 c -0.0403,-0.30805 -0.11474,-0.47124 -0.24336,-0.53351 -0.0809,-0.0392 -0.19678,-0.0468 -0.25507,-0.0169 -0.1926,0.0989 -0.24106,0.34953 -0.22663,1.17187 0.0116,0.66074 0.045,0.82881 0.18431,0.92802 0.0719,0.0512 0.23882,0.0644 0.31508,0.025 0.1164,-0.0602 0.18781,-0.22808 0.22552,-0.53023 l 0.0209,-0.16768 0.38231,0.14227 c 0.21027,0.0782 0.38786,0.14745 0.39464,0.15379 0.0175,0.0163 -0.0445,0.26469 -0.10568,0.42333 -0.14014,0.36339 -0.41292,0.61316 -0.77026,0.70529 -0.14914,0.0385 -0.46303,0.0465 -0.62352,0.0161 z m 10.72139,0.008 c -0.29884,-0.0504 -0.5499,-0.18948 -0.76231,-0.42222 -0.32063,-0.35131 -0.47489,-0.80878 -0.47391,-1.40539 0.001,-0.6489 0.18859,-1.13474 0.57663,-1.494 0.20889,-0.1934 0.47134,-0.30313 0.78413,-0.32785 0.73232,-0.0579 1.32188,0.45727 1.50656,1.3164 0.0316,0.14722 0.0375,0.22732 0.0375,0.51312 0,0.36962 -0.0268,0.55241 -0.1187,0.80829 -0.14846,0.41359 -0.42457,0.74136 -0.76067,0.90302 -0.21805,0.10487 -0.54488,0.14986 -0.78923,0.10863 z m 0.35967,-0.81696 c 0.0794,-0.0535 0.14478,-0.16736 0.1836,-0.31956 0.10205,-0.40011 0.0843,-1.16346 -0.0344,-1.48075 -0.0975,-0.26052 -0.32484,-0.33385 -0.49174,-0.15858 -0.14216,0.14929 -0.1917,0.44027 -0.17862,1.04904 0.006,0.29905 0.0169,0.45032 0.0374,0.54187 0.0625,0.27862 0.16893,0.4064 0.33868,0.4064 0.0635,0 0.10398,-0.0107 0.1451,-0.0384 z m 5.053,0.81871 c -0.38281,-0.0615 -0.70652,-0.27919 -0.93088,-0.62602 -0.22371,-0.34581 -0.31671,-0.70301 -0.31573,-1.21261 0.001,-0.63438 0.17805,-1.10347 0.55044,-1.46032 0.2231,-0.21379 0.48167,-0.3273 0.80143,-0.35182 0.74046,-0.0568 1.32987,0.45431 1.51431,1.31304 0.0323,0.15049 0.0381,0.22869 0.0381,0.51604 0,0.38199 -0.029,0.56784 -0.13115,0.83973 -0.18292,0.487 -0.54973,0.8464 -0.975,0.95533 -0.12561,0.0322 -0.42657,0.0467 -0.55151,0.0266 z m 0.33056,-0.80568 c 0.10676,-0.0552 0.185,-0.21395 0.23215,-0.47104 0.0406,-0.22117 0.0408,-0.87175 3.1e-4,-1.08989 -0.0711,-0.38351 -0.21279,-0.55193 -0.41792,-0.49669 -0.23625,0.0636 -0.3239,0.34584 -0.32371,1.04231 1.6e-4,0.604 0.0673,0.88787 0.23707,1.00228 0.0678,0.0457 0.19696,0.0519 0.2721,0.013 z m -23.30023,0.35612 v -0.36353 l 0.19897,-0.005 0.19896,-0.005 v -1.7526 -1.7526 h -0.21166 -0.21167 l -0.004,0.5461 -0.004,0.5461 h -0.36384 -0.36383 v -0.9144 -0.9144 h 1.7526 1.7526 v 0.9144 0.9144 h -0.36383 -0.36383 l -0.004,-0.5461 -0.004,-0.5461 -0.21598,-0.005 -0.21598,-0.005 0.004,1.75734 0.004,1.75734 0.19896,0.005 0.19897,0.005 v 0.36353 0.36353 h -0.9906 -0.9906 z m 8.70373,2e-5 v -0.36351 l 0.1905,-0.005 0.1905,-0.005 v -1.7526 -1.7526 l -0.1905,-0.005 -0.1905,-0.005 v -0.36352 -0.36351 h 0.70274 0.70273 v 0.84567 c 0,0.46512 0.006,0.84921 0.0127,0.85353 0.007,0.004 0.0737,-0.0324 0.14816,-0.0816 0.25994,-0.17161 0.49075,-0.2331 0.74652,-0.19888 0.37068,0.0496 0.62245,0.29122 0.73884,0.70905 0.0355,0.12754 0.0374,0.172 0.0463,1.12339 l 0.009,0.9906 0.17357,0.005 0.17356,0.005 v 0.36348 0.36347 h -0.69385 -0.69385 l -6.1e-4,-1.25065 c -6.4e-4,-1.30277 -0.003,-1.355 -0.0724,-1.44302 -0.10226,-0.13018 -0.34139,-0.11753 -0.5324,0.0282 l -0.0561,0.0428 0.004,0.94306 0.004,0.94306 0.1524,0.008 0.1524,0.008 0.003,0.35983 0.003,0.35983 h -0.86275 -0.86275 z m 3.79266,0.32134 c -2.3e-4,-0.0234 -4.2e-4,-0.17965 -4.2e-4,-0.34729 0,-0.16764 1.9e-4,-0.31242 4.2e-4,-0.32174 2.5e-4,-0.0102 0.0741,-0.0169 0.18668,-0.0169 h 0.18626 v -1.00753 -1.00754 h -0.18626 c -0.10245,0 -0.18639,-0.006 -0.18654,-0.0127 -6.6e-4,-0.0316 -0.001,-0.65942 -4.4e-4,-0.6858 6.7e-4,-0.0277 0.0457,-0.0296 0.70344,-0.0296 h 0.70274 v 0.18768 c 0,0.10322 0.007,0.18513 0.0148,0.18203 0.008,-0.003 0.0522,-0.0546 0.0979,-0.11442 0.15593,-0.20397 0.33031,-0.28885 0.62077,-0.30215 0.22204,-0.0102 0.3542,0.02 0.4994,0.1138 0.189,0.12216 0.3214,0.31838 0.39651,0.58767 0.0358,0.12823 0.0373,0.16636 0.043,1.11069 l 0.006,0.9779 h 0.1768 0.1768 v 0.36407 0.36406 h -0.69427 -0.69427 v -1.21564 c 0,-1.04313 -0.004,-1.22994 -0.0262,-1.31636 -0.0424,-0.16293 -0.12879,-0.2222 -0.30273,-0.20777 -0.0683,0.006 -0.11349,0.024 -0.2013,0.0817 l -0.1132,0.0744 v 0.92775 0.92774 h 0.1522 0.1522 l -0.004,0.35983 -0.004,0.35984 -0.8509,0.004 -0.8509,0.004 z m 7.07854,-0.32119 v -0.36366 l 0.1905,-0.005 0.1905,-0.005 v -1.7526 -1.7526 l -0.1905,-0.005 -0.1905,-0.005 v -0.36352 -0.36351 h 0.70267 0.70267 l 0.004,2.1209 0.004,2.1209 0.1739,0.005 0.1739,0.005 -0.005,0.35924 -0.005,0.35924 -0.8763,0.004 -0.8763,0.004 z m -10.21926,-5.81911 c -0.22385,-0.0322 -0.42848,-0.1794 -0.52424,-0.37714 -0.10213,-0.21089 -0.10074,-0.19308 -0.1067,-1.36942 l -0.005,-1.0795 h -0.16016 -0.16017 v -0.36343 -0.36343 l 0.15664,-0.005 0.15663,-0.005 0.005,-0.22228 0.005,-0.22228 0.50329,-0.39392 0.50329,-0.39393 0.008,0.61621 0.008,0.6162 0.20744,0.005 0.20743,0.005 v 0.36354 0.36355 h -0.21167 -0.21166 v 0.81564 c 0,0.85965 0.009,0.98769 0.0743,1.08523 0.0519,0.0772 0.15116,0.1098 0.26404,0.0867 l 0.0856,-0.0175 -0.005,0.38119 -0.005,0.3812 -0.14183,0.0386 c -0.13752,0.0374 -0.40902,0.076 -0.5052,0.0718 -0.026,-0.001 -0.093,-0.009 -0.14883,-0.0167 z m 4.30552,0.002 c -0.33024,-0.0594 -0.51519,-0.23261 -0.60939,-0.57061 -0.0358,-0.12847 -0.0371,-0.16476 -0.043,-1.19506 l -0.006,-1.06257 h -0.15136 -0.15137 v -0.36407 -0.36407 h 0.1524 0.1524 v -0.22572 -0.22573 l 0.072,-0.0521 c 0.0396,-0.0287 0.27008,-0.20812 0.51223,-0.39875 l 0.44027,-0.3466 0.004,0.62448 0.004,0.62447 h 0.21146 0.21146 v 0.36407 0.36407 h -0.21237 -0.21236 l 0.005,0.9017 0.005,0.9017 0.0403,0.0703 c 0.0221,0.0386 0.0594,0.0805 0.0829,0.0931 0.047,0.0251 0.17256,0.0302 0.24516,0.01 l 0.0466,-0.013 v 0.37996 0.37996 l -0.0808,0.0268 c -0.19761,0.0656 -0.56558,0.10548 -0.71908,0.0779 z m 5.81978,-0.007 c -0.2987,-0.0563 -0.48287,-0.23011 -0.57683,-0.54428 -0.027,-0.0903 -0.0311,-0.21197 -0.0395,-1.18441 l -0.009,-1.08373 -0.15664,-0.005 -0.15663,-0.005 v -0.3628 -0.36279 l 0.15663,-0.005 0.15664,-0.005 0.005,-0.22296 0.005,-0.22296 0.49932,-0.39087 c 0.27462,-0.21498 0.50291,-0.39088 0.5073,-0.39088 0.004,0 0.01,0.27623 0.0124,0.61383 l 0.004,0.61384 0.20743,0.005 0.20744,0.005 v 0.36354 0.36355 h -0.21251 -0.2125 l 0.006,0.88477 c 0.005,0.70083 0.0108,0.89821 0.0294,0.94946 0.0457,0.12571 0.1694,0.18513 0.31575,0.15164 l 0.0739,-0.0169 v 0.37797 0.37797 l -0.10855,0.0335 c -0.23238,0.0718 -0.52727,0.0976 -0.71355,0.0625 z m 2.39982,0.006 c -0.67384,-0.084 -1.0247,-0.57023 -1.10516,-1.53165 -0.0453,-0.54153 0.0247,-1.07285 0.18729,-1.42226 0.15714,-0.3376 0.42375,-0.56399 0.78046,-0.66272 0.15561,-0.0431 0.54323,-0.0426 0.68482,7.9e-4 0.3941,0.12084 0.67929,0.41017 0.81924,0.83112 0.0744,0.22367 0.10287,0.4178 0.11505,0.78317 l 0.0109,0.32597 h -0.80115 -0.80115 l 0.0114,0.23899 c 0.0211,0.44285 0.0612,0.59351 0.17834,0.67115 0.10273,0.0681 0.28365,0.0441 0.36921,-0.0488 0.0483,-0.0524 0.1021,-0.17492 0.11653,-0.26515 0.006,-0.0392 0.0193,-0.0713 0.029,-0.0713 0.0177,0 0.78161,0.28215 0.81999,0.30288 0.0282,0.0152 -0.097,0.25676 -0.20215,0.39026 -0.15221,0.19315 -0.41501,0.36048 -0.66768,0.4251 -0.15445,0.0395 -0.3802,0.0529 -0.5449,0.0324 z m 0.44963,-2.41642 c -0.0109,-0.27012 -0.0398,-0.38353 -0.11919,-0.46771 -0.10175,-0.10789 -0.26551,-0.0913 -0.33768,0.0342 -0.0428,0.0744 -0.0764,0.25174 -0.0903,0.47586 l -0.0118,0.1905 h 0.28418 0.28417 z m 5.12698,2.41749 c -0.59696,-0.0667 -1.0862,-0.5795 -1.23602,-1.29565 -0.059,-0.28192 -0.0592,-0.77728 -5.5e-4,-1.05625 0.11493,-0.54638 0.44817,-1.0127 0.85104,-1.19091 0.31774,-0.14055 0.74243,-0.15056 1.05369,-0.0248 0.43295,0.17488 0.75367,0.58049 0.89667,1.13401 0.11007,0.42604 0.0823,1.03012 -0.0661,1.43662 -0.17817,0.48818 -0.54746,0.85457 -0.96898,0.96136 -0.15168,0.0384 -0.37211,0.0533 -0.52979,0.0357 z m 0.2963,-0.80457 c 0.16135,-0.0834 0.24783,-0.37021 0.26555,-0.88055 0.0165,-0.47523 -0.0333,-0.83427 -0.14256,-1.0277 -0.13371,-0.23675 -0.41498,-0.20809 -0.52762,0.0537 -0.0809,0.188 -0.0949,0.31306 -0.0942,0.83849 7.8e-4,0.55181 0.0152,0.66086 0.11323,0.85462 0.0419,0.0828 0.072,0.11892 0.12314,0.14789 0.0793,0.0449 0.19067,0.0506 0.26243,0.0135 z m -20.74185,0.75319 c -0.0943,-0.0199 -0.18419,-0.0792 -0.29021,-0.19123 -0.0909,-0.0961 -0.087,-0.0989 -0.0904,0.0646 l -0.002,0.0847 -0.3683,0.005 -0.3683,0.005 v -0.466 -0.46599 h 0.37035 0.37035 l 0.0108,0.0816 c 0.0162,0.1219 0.0915,0.22942 0.18588,0.26548 0.13056,0.0499 0.253,0.0102 0.30466,-0.0986 0.0612,-0.12895 0.0173,-0.2754 -0.12095,-0.40394 -0.0438,-0.0408 -0.19783,-0.15758 -0.34219,-0.25961 -0.34694,-0.24521 -0.60778,-0.50184 -0.69682,-0.68559 -0.0846,-0.17449 -0.11532,-0.28706 -0.12725,-0.46567 -0.036,-0.53879 0.2464,-0.96175 0.6835,-1.02374 0.22514,-0.0319 0.42045,0.0309 0.57783,0.18578 0.0472,0.0464 0.09,0.0844 0.0952,0.0844 0.005,0 0.009,-0.0495 0.009,-0.11007 v -0.11007 h 0.37253 0.37254 v 0.44027 0.44027 h -0.36976 -0.36976 l -0.0277,-0.0998 c -0.0482,-0.17349 -0.15797,-0.26663 -0.29582,-0.25109 -0.137,0.0154 -0.21398,0.10729 -0.21196,0.2529 0.002,0.16258 0.10185,0.2719 0.47866,0.52541 0.47745,0.32122 0.61718,0.45598 0.75304,0.72626 0.0931,0.18515 0.11737,0.32204 0.10748,0.60551 -0.006,0.17218 -0.0157,0.23682 -0.0502,0.33379 -0.0846,0.23829 -0.25267,0.42316 -0.45425,0.49973 -0.1065,0.0404 -0.38301,0.0577 -0.50655,0.0316 z m 8.80388,-0.0135 c -0.22637,-0.0592 -0.41452,-0.22117 -0.52481,-0.45188 -0.12349,-0.2583 -0.12339,-0.25732 -0.13101,-1.34197 l -0.007,-0.96943 h -0.16822 -0.16821 v -0.36407 -0.36407 h 0.68518 0.68518 l 0.005,1.24884 c 0.004,1.01144 0.009,1.2601 0.0283,1.3081 0.0524,0.13309 0.1713,0.20041 0.31271,0.177 0.081,-0.0134 0.10833,-0.0258 0.21779,-0.0985 l 0.08,-0.0531 4.4e-4,-0.9271 4.3e-4,-0.9271 h -0.14393 -0.14393 v -0.36407 -0.36407 h 0.6604 0.6604 v 1.36314 1.36313 h 0.19473 0.19473 v 0.37254 0.37253 h -0.71051 -0.71052 l -0.005,-0.13691 -0.005,-0.13691 -0.0801,0.0612 c -0.29112,0.22254 -0.63559,0.30895 -0.92744,0.23267 z m -16.28986,-0.39261 v -0.37254 h 0.24553 0.24553 v -1.7526 -1.7526 h -0.24553 -0.24553 v -0.36407 -0.36406 h 1.0922 1.0922 v 0.36406 0.36407 h -0.26247 -0.26247 v 1.7526 1.7526 h 0.26247 0.26247 v 0.37254 0.37253 h -1.0922 -1.0922 z m 2.54,0 v -0.37254 h 0.18626 0.18627 v -0.99906 -0.99907 h -0.18627 -0.18626 v -0.36407 -0.36407 h 0.70273 0.70273 v 0.17681 c 0,0.0972 0.007,0.18134 0.0163,0.18689 0.009,0.006 0.0364,-0.0217 0.0609,-0.0604 0.12085,-0.19145 0.33576,-0.3232 0.57476,-0.35239 0.47959,-0.0586 0.83972,0.19467 0.97774,0.68751 0.0357,0.12758 0.0372,0.16547 0.0427,1.10999 l 0.006,0.9779 h 0.17691 0.17691 v 0.37254 0.37253 h -0.6858 -0.6858 l -4.3e-4,-1.11337 c -2.4e-4,-0.61235 -0.008,-1.18756 -0.0165,-1.27824 -0.0267,-0.27413 -0.0931,-0.35159 -0.30134,-0.35159 -0.0926,0 -0.112,0.007 -0.22181,0.0797 l -0.12034,0.0797 v 0.91937 0.91937 h 0.1524 0.1524 v 0.37254 0.37253 h -0.85513 -0.85513 z m 8.55133,0 v -0.37254 h 0.18627 0.18626 v -0.99906 -0.99907 h -0.18626 -0.18627 v -0.36407 -0.36407 h 0.70273 0.70274 v 1.36314 1.36313 h 0.16086 0.16087 v 0.37254 0.37253 h -0.8636 -0.8636 z m 18.9992,0 v -0.37254 h 0.13547 0.13546 v -0.99906 -0.99907 h -0.127 -0.127 v -0.36407 -0.36407 h 0.127 0.127 l 2.7e-4,-0.12276 c 4.6e-4,-0.20919 0.0315,-0.50704 0.065,-0.62323 0.11567,-0.40114 0.41357,-0.68568 0.83504,-0.79759 0.18522,-0.0492 0.52187,-0.0524 0.69984,-0.007 0.24008,0.0617 0.4454,0.18533 0.57095,0.34376 0.035,0.0442 0.0638,0.0849 0.0639,0.0905 1e-4,0.006 -0.18013,0.093 -0.40052,0.19412 -0.37069,0.17017 -0.40209,0.18163 -0.4191,0.15292 -0.0425,-0.0717 -0.0725,-0.0972 -0.12979,-0.11007 -0.0882,-0.0199 -0.16768,0.0116 -0.2095,0.0831 -0.0315,0.0539 -0.0352,0.0928 -0.0404,0.42756 l -0.006,0.3683 h 0.19617 0.19616 v 0.36407 0.36407 h -0.19473 -0.19473 v 0.99907 0.99906 h 0.19473 0.19473 v 0.37254 0.37253 h -0.84666 -0.84667 z m -18.25537,-3.5105 c -0.1826,-0.0517 -0.34246,-0.19508 -0.40558,-0.36378 -0.0386,-0.1032 -0.0472,-0.2908 -0.0178,-0.39024 0.0453,-0.15342 0.17556,-0.29713 0.33791,-0.37275 0.0799,-0.0372 0.11819,-0.0442 0.2391,-0.0434 0.12214,7.6e-4 0.15915,0.008 0.24448,0.049 0.12733,0.0609 0.23657,0.16973 0.2945,0.29331 0.0385,0.0822 0.0452,0.11906 0.0452,0.24922 0,0.13852 -0.005,0.16331 -0.0557,0.26599 -0.0638,0.12955 -0.15544,0.21805 -0.28743,0.2775 -0.11035,0.0497 -0.28749,0.0655 -0.39462,0.0352 z m 8.30823,-2.37649 c -0.11083,-0.034 -0.24437,-0.12122 -0.33437,-0.21836 -0.28609,-0.30875 -0.42151,-0.8216 -0.42286,-1.60138 -0.001,-0.73623 0.11208,-1.14889 0.39838,-1.45033 0.33072,-0.34819 0.83153,-0.36433 1.13497,-0.0366 0.0521,0.0563 0.0947,0.10945 0.0947,0.11823 0,0.009 0.008,0.016 0.0169,0.016 0.0109,0 0.0169,-0.19191 0.0169,-0.54187 v -0.54186 h -0.16966 -0.16967 l 0.005,-0.3683 0.005,-0.3683 0.68157,-0.004 0.68156,-0.004 v 2.12532 2.12533 h 0.16967 0.16966 l -0.005,0.3683 -0.005,0.3683 h -0.67733 -0.67733 l -0.005,-0.13124 c -0.003,-0.0722 -0.009,-0.13123 -0.0135,-0.13123 -0.005,0 -0.0368,0.0275 -0.0712,0.0611 -0.17235,0.16817 -0.35484,0.24337 -0.5876,0.24211 -0.0855,-4.6e-4 -0.18901,-0.0121 -0.2358,-0.0264 z m 0.71501,-0.72396 c 0.0691,-0.0359 0.11522,-0.0941 0.14912,-0.18788 0.0267,-0.074 0.0314,-0.15838 0.037,-0.66882 0.007,-0.64964 -0.008,-0.85352 -0.0718,-0.99356 -0.0468,-0.10229 -0.1066,-0.14102 -0.21763,-0.14102 -0.0927,0 -0.17824,0.0535 -0.2193,0.13713 -0.0626,0.1275 -0.0719,0.2413 -0.0714,0.8704 5.8e-4,0.65937 0.0148,0.79673 0.0943,0.90828 0.0646,0.0907 0.2033,0.12565 0.29974,0.0755 z m 4.84602,0.73437 c -0.10011,-0.0238 -0.20679,-0.0762 -0.30449,-0.14967 -0.26978,-0.20282 -0.42334,-0.54367 -0.42334,-0.93971 0,-0.38618 0.12417,-0.68781 0.37751,-0.91707 0.31899,-0.28867 0.81855,-0.32329 1.19902,-0.0831 0.0359,0.0227 0.07,0.0412 0.0757,0.0412 0.006,0 0.008,-0.14287 0.005,-0.3175 -0.005,-0.29897 -0.008,-0.32238 -0.0481,-0.40128 -0.0233,-0.0461 -0.0627,-0.0986 -0.0876,-0.11667 -0.0508,-0.0369 -0.18401,-0.0551 -0.27649,-0.0377 -0.0728,0.0137 -0.1843,0.10912 -0.22843,0.19563 l -0.0313,0.0614 -0.45788,-0.0929 -0.45788,-0.0929 0.0361,-0.0642 c 0.10461,-0.18613 0.31868,-0.38952 0.52116,-0.49516 0.25827,-0.13474 0.53554,-0.18802 0.91126,-0.1751 0.28532,0.01 0.44641,0.0452 0.63913,0.14043 0.23103,0.11416 0.37913,0.28341 0.46232,0.52835 l 0.0445,0.13113 0.005,1.01177 0.005,1.01177 h 0.16001 0.16001 v 0.37273 0.37272 l -0.6731,-0.004 -0.6731,-0.004 -0.005,-0.13158 -0.005,-0.13158 -0.0957,0.078 c -0.11543,0.094 -0.25807,0.16823 -0.38889,0.20231 -0.1032,0.0269 -0.34705,0.0311 -0.4456,0.008 z m 0.75622,-0.7456 c 0.0398,-0.0193 0.0955,-0.0614 0.12388,-0.0937 l 0.0515,-0.0587 v -0.27549 -0.27549 l -0.055,-0.0533 c -0.19944,-0.19302 -0.4785,-0.10987 -0.55543,0.16549 -0.0304,0.10869 -0.0258,0.33307 0.008,0.41503 0.0774,0.18519 0.25576,0.25885 0.4266,0.17615 z m -13.42201,0.35678 v -0.37253 h 0.23707 0.23707 v -1.7526 -1.7526 h -0.23707 -0.23707 v -0.37254 -0.37253 h 1.08374 1.08373 v 0.37209 0.3721 l -0.25823,0.005 -0.25824,0.005 -0.004,1.74837 -0.004,1.74837 h 0.26254 0.26255 v 0.37253 0.37253 h -1.08373 -1.08374 z m 2.52307,1.6e-4 v -0.37269 h 0.19473 0.19474 v -0.99907 -0.99907 h -0.19474 -0.19473 v -0.37253 -0.37253 h 0.70273 0.70274 v 0.18626 c 0,0.1523 0.005,0.18627 0.0248,0.18627 0.0136,0 0.0339,-0.0171 0.0451,-0.0381 0.0739,-0.13876 0.25434,-0.28429 0.41329,-0.33339 0.44804,-0.13838 0.86828,0.029 1.06111,0.42267 0.12472,0.25463 0.12112,0.21723 0.12769,1.32465 l 0.006,0.99484 h 0.17705 0.17704 v 0.37253 0.37253 h -0.68499 -0.68498 l -0.005,-1.24036 c -0.005,-1.19038 -0.007,-1.24407 -0.0389,-1.33212 -0.0385,-0.10472 -0.092,-0.15194 -0.19281,-0.17038 -0.10629,-0.0194 -0.1965,0.005 -0.31617,0.0864 l -0.10899,0.0739 v 0.91877 0.91877 h 0.15273 0.15273 l -0.005,0.3683 -0.005,0.3683 -0.8509,0.004 -0.8509,0.004 z m 7.2136,0 v -0.37269 h 0.18627 0.18626 v -0.99907 -0.99907 h -0.18626 -0.18627 v -0.37253 -0.37253 h 0.70273 0.70274 v 1.3716 1.3716 h 0.16966 0.16966 l -0.005,0.3683 -0.005,0.3683 -0.86784,0.004 -0.86783,0.004 z m 5.59929,0.36109 c -0.006,-0.006 -0.0113,-0.17385 -0.0113,-0.37254 v -0.36124 h 0.19473 0.19474 v -0.99907 -0.99907 h -0.19474 -0.19473 v -0.37253 -0.37253 h 0.7112 0.7112 v 0.18626 c 0,0.10663 0.007,0.18627 0.0161,0.18627 0.009,0 0.0385,-0.0326 0.0659,-0.0724 0.12827,-0.18644 0.32174,-0.3032 0.55765,-0.33656 0.44536,-0.063 0.81113,0.17082 0.95786,0.61227 0.0688,0.20699 0.0788,0.37138 0.0788,1.29947 l 5e-5,0.86784 h 0.16933 0.16934 v 0.37253 0.37253 h -0.68519 -0.68518 l -0.005,-1.2573 c -0.006,-1.35738 -0.005,-1.33771 -0.0966,-1.42586 -0.0531,-0.0509 -0.16651,-0.0753 -0.267,-0.0576 -0.0393,0.007 -0.11741,0.0438 -0.17356,0.0819 l -0.1021,0.0693 v 0.92223 0.92224 h 0.14393 0.14394 v 0.37253 0.37253 h -0.84385 c -0.46411,0 -0.84892,-0.005 -0.85513,-0.0113 z m -4.80797,-3.8669 c -0.17693,-0.0302 -0.34294,-0.15547 -0.42883,-0.32372 -0.06,-0.11748 -0.0746,-0.30454 -0.0343,-0.43927 0.10204,-0.34133 0.5125,-0.51956 0.83415,-0.36219 0.11611,0.0568 0.24766,0.2015 0.29274,0.32199 0.0421,0.1126 0.047,0.30823 0.0103,0.41223 -0.096,0.27212 -0.38567,0.44011 -0.6741,0.39096 z" id="path123"/><path id="path122" style="display:inline;fill:#4d4948;fill-opacity:1" d="m 96.023595,129.42763 c -0.975527,-0.004 -0.975695,-0.005 -0.992705,0.0589 -0.0094,0.035 -0.0624,0.25034 -0.117822,0.47852 -0.05542,0.22817 -0.144244,0.594 -0.197404,0.81287 -0.272474,1.12184 -0.244946,0.85276 -0.244946,2.39004 v 1.36942 h -0.346749 -0.347266 v -0.52503 -0.52503 h -0.58446 -0.583944 v 0.52503 0.52503 H 91.693626 90.77947 v -0.52503 -0.52503 h -0.592728 -0.592729 l -0.0021,0.49557 c -0.001,0.27242 -1.5e-4,0.50822 0.0016,0.52452 0.0028,0.0276 -0.04357,0.03 -0.76016,0.03 -0.763064,0 -0.763288,9e-5 -0.763778,-0.0465 -2.7e-4,-0.0256 -1.5e-5,-0.26193 5.17e-4,-0.52503 l 10e-4,-0.47852 h -0.584461 -0.584977 v 0.52503 0.52503 h -0.855245 -0.854728 v -0.52503 -0.52503 H 84.60722 84.023277 v 0.52503 0.52503 h -0.905888 -0.906405 v -0.52503 -0.52503 H 81.62704 81.04258 v 0.52503 0.52503 h -0.838192 -0.838191 v -0.52503 -0.52503 h -0.575676 -0.575675 v 0.52503 0.52503 h -0.838192 -0.838192 v -0.52503 -0.52503 h -0.600997 -0.600997 v 0.52503 0.52503 H 74.43058 73.524176 v -0.52503 -0.52503 h -0.583944 -0.58446 v 0.52503 0.52503 H 72.04263 71.72947 v -1.37924 -1.37976 l -0.161747,-0.73277 c -0.08901,-0.40322 -0.203805,-0.92315 -0.254765,-1.15497 -0.05096,-0.23183 -0.09638,-0.42763 -0.101285,-0.43563 -0.0049,-0.007 -0.457572,-0.0145 -1.005624,-0.0145 h -0.996321 l -0.07752,0.31729 c -0.04245,0.17463 -0.17263,0.71256 -0.289388,1.19528 l -0.21239,0.87746 v 2.64842 2.64893 l 1.231966,0.004 v -5.2e-4 c 0.677545,0.002 6.642021,0.003 13.254488,5.2e-4 6.612466,-0.002 12.56972,-0.004 13.237952,-0.004 l 1.214913,-5.1e-4 v -2.65721 c 0,-2.65727 -2e-5,-2.657 -0.08475,-3.00963 -0.0466,-0.19394 -0.17493,-0.73013 -0.285254,-1.19114 l -0.200504,-0.8382 z M 68.630951,137.839 v 5.23276 5.23223 l 0.850595,0.002 c 0.467995,0.001 1.575032,0.007 2.459798,0.0134 v 0.001 c 0.884767,0.007 2.075391,0.0125 2.645833,0.0145 l 1.037146,0.003 v -0.25786 c 8.69e-4,-1.28453 0.400173,-2.63499 1.142566,-3.8654 0.320997,-0.53201 0.85074,-1.28621 1.102775,-1.56993 0.343721,-0.38693 1.054351,-0.94091 1.733744,-1.35134 0.621104,-0.37521 1.769433,-0.79557 2.473234,-0.90537 0.382552,-0.0597 1.61399,-0.049 2.064991,0.0176 0.941093,0.139 1.884646,0.52079 2.794144,1.1312 0.593384,0.39824 1.218185,0.94107 1.610755,1.3994 0.648453,0.75709 1.274496,1.91818 1.621089,3.00601 0.238496,0.74855 0.34703,1.35066 0.36897,2.04639 l 0.01137,0.35295 2.194181,-0.0124 c 1.206918,-0.007 2.782305,-0.0167 3.500562,-0.0227 l 1.305863,-0.0103 0.0124,-5.22811 0.0124,-5.22862 H 83.101903 Z m 13.86117,3.08198 c -1.45856,0.12877 -2.855627,0.81007 -4.061768,1.98076 -1.481776,1.43823 -2.238413,3.28857 -2.312003,5.65444 l -0.01137,0.36638 -3.274736,0.004 -3.274735,0.004 0.01085,6.00739 c 0.006,3.30389 0.0157,7.49109 0.0217,9.30486 l 0.01085,3.29799 h 3.969784 3.969783 l -0.01137,-8.75864 c -0.01262,-9.94646 -0.0127,-9.7283 0.0098,-10.17251 0.06443,-1.27072 0.271597,-2.16081 0.684713,-2.94194 0.174737,-0.3304 0.530051,-0.87013 0.777213,-1.1808 0.321506,-0.40413 0.801085,-0.83367 1.262972,-1.1312 0.431603,-0.27802 1.067933,-0.56899 1.543058,-0.70538 0.432174,-0.12437 0.474407,-0.12816 1.259355,-0.12816 0.773199,0 0.80099,0.002 1.185457,0.10128 0.637547,0.16473 1.402591,0.53455 1.935283,0.93535 0.293373,0.22074 0.415998,0.32792 0.666626,0.58239 0.299665,0.30427 0.575904,0.67509 0.908471,1.22008 0.487815,0.7994 0.718268,1.62155 0.819072,2.91817 0.02887,0.37131 0.02868,1.42736 -10e-4,8.20415 -0.02827,6.44983 -0.0115,10.85685 0.04186,11.02775 0.0088,0.0276 0.217527,0.0295 4.072103,0.0295 h 4.062801 v -9.30486 -9.30486 H 93.4067 90.056517 l -0.0098,-0.45269 c -0.0113,-0.50619 -0.04158,-0.83651 -0.115756,-1.27434 -0.269851,-1.59282 -0.996859,-3.0658 -2.054138,-4.16098 -0.385056,-0.39885 -0.903319,-0.8435 -1.220597,-1.04697 -0.05588,-0.0358 -0.145748,-0.094 -0.199988,-0.12919 -0.174708,-0.11331 -0.970578,-0.483 -1.321366,-0.61391 -0.278809,-0.10405 -0.740599,-0.21041 -1.340487,-0.30851 -0.222934,-0.0365 -0.99784,-0.0502 -1.302246,-0.0233 z"/><path style="display:inline;fill:#e15517;fill-opacity:1" d="m 90.255858,33.961243 c -0.01577,-0.019 0.008,-0.09175 0.114914,-0.351366 0.597575,-1.451406 0.874348,-2.221533 1.091363,-3.036739 0.273329,-1.026746 0.390764,-2.049875 0.335272,-2.921 -0.194276,-3.049824 -1.218543,-5.680544 -3.012986,-7.738534 -0.187447,-0.214977 -0.710748,-0.740334 -0.951223,-0.954961 -1.53182,-1.367168 -3.385265,-2.296628 -5.408174,-2.712074 -2.568553,-0.527506 -5.205753,-0.187914 -7.515366,0.967755 -0.728652,0.364598 -0.941083,0.506077 -1.974302,1.314878 -0.500183,0.391543 -0.942223,0.726589 -0.982309,0.744547 -0.30522,0.136735 -0.667835,0.02793 -0.847414,-0.254272 -0.122094,-0.191868 -0.137921,-0.45337 -0.03934,-0.649944 0.02949,-0.05881 0.07524,-0.130402 0.101659,-0.15909 0.02642,-0.02869 0.23408,-0.166676 0.461471,-0.306638 0.918263,-0.565203 2.068258,-1.272352 2.267638,-1.394405 0.116416,-0.07127 0.47232,-0.290047 0.790898,-0.48618 0.533639,-0.328535 0.597615,-0.363254 0.8128,-0.441093 1.031552,-0.373142 2.021525,-0.585751 3.264635,-0.701121 0.374528,-0.03476 1.66119,-0.02939 2.065866,0.0086 1.093453,0.102708 2.024675,0.294679 2.987066,0.615781 1.889065,0.630286 3.535264,1.642047 4.912677,3.019349 0.402091,0.402059 0.600463,0.622214 0.917189,1.017909 1.81658,2.269499 2.782321,5.14261 2.717304,8.084071 -0.04073,1.842776 -0.35014,3.087797 -1.171986,4.715933 -0.265239,0.52546 -0.880822,1.642534 -0.905145,1.642534 -0.0069,0 -0.02157,-0.01078 -0.03251,-0.02396 z" id="path244" transform="translate(56.201736,109.50998)"/><path d="m 40.503988,8.7255656 c -0.502327,-9.881e-4 -1.019552,0.074287 -1.547193,0.225826 -2.054499,0.5900553 -4.131366,1.6559944 -6.190836,3.1781004 -1.681755,1.242946 -3.510443,2.922124 -5.554183,5.100464 -0.821853,0.87598 -1.16291,1.250392 -3.217892,3.530017 -0.77543,0.860197 -1.5685,1.72328 -1.995744,2.171961 l -0.07648,0.08062 1.142049,-0.001 1.142566,-0.001 0.417029,-0.47749 c 0.229453,-0.262599 0.872826,-0.999147 1.429887,-1.63711 1.927746,-2.207715 2.547399,-2.892347 3.717086,-4.106726 2.364594,-2.454942 4.618294,-4.263374 6.890535,-5.529378 0.361081,-0.20118 1.111285,-0.57832 1.426787,-0.717269 1.501778,-0.661389 2.6042,-0.8210431 3.557922,-0.515731 0.452306,0.144796 1.512661,0.764722 2.440161,1.42627 1.111649,0.792893 2.152635,1.677898 3.903638,3.320727 1.705323,1.599972 2.050651,1.919145 2.625163,2.423108 1.434314,1.258181 2.649835,2.1468 3.882967,2.838587 0.661278,0.370976 1.118592,0.557776 1.711006,0.699182 0.472229,0.112719 0.964498,0.172708 1.809192,0.220658 0.189067,0.01073 0.198955,0.0098 0.198955,-0.02119 0,-0.02821 -0.04017,-0.04263 -0.300241,-0.105937 -1.501247,-0.365434 -2.977375,-1.06235 -4.440555,-2.096513 -0.367648,-0.25985 -0.916106,-0.68459 -0.909506,-0.70435 0.0033,-0.01 0.477483,-0.348275 1.0542,-0.751892 0.576718,-0.403616 1.338496,-0.93662 1.692403,-1.184424 0.353907,-0.247804 0.944188,-0.661241 1.312064,-0.918806 0.367877,-0.257565 0.949839,-0.665067 1.292945,-0.905372 0.592517,-0.414992 0.632015,-0.439826 0.791683,-0.494026 0.250613,-0.08507 0.452292,-0.112906 0.72657,-0.101286 0.351361,0.01488 0.656435,0.0961 1.024227,0.273368 0.710585,0.342483 1.406325,0.945108 2.531629,2.192631 0.256117,0.283933 0.545581,0.600476 0.643371,0.703317 0.481947,0.506844 0.743242,0.79652 1.71049,1.896008 1.237982,1.407237 2.082108,2.195873 3.030823,2.831352 0.442753,0.296569 0.692463,0.416759 1.43092,0.68833 0.979556,0.360237 1.199561,0.474809 1.998845,1.044897 0.688836,0.491311 1.264519,0.977417 2.495971,2.106848 0.981453,0.900143 1.108266,1.015679 1.414901,1.286743 0.676142,0.597707 1.293338,1.087813 1.828829,1.452108 0.155286,0.105641 0.78347,0.46356 1.820561,1.037663 0.870797,0.482048 2.040524,1.129716 2.599324,1.439189 1.211645,0.67103 2.639667,1.461513 3.640605,2.01538 0.400474,0.221601 0.929869,0.514863 1.176672,0.65164 0.246803,0.136777 0.852564,0.472376 1.346171,0.745691 0.493607,0.273315 1.091628,0.605246 1.329118,0.73794 0.23749,0.132694 0.436867,0.241746 0.442867,0.242362 0,0 5.17e-4,0 5.17e-4,0 0,0 5.17e-4,0 5.17e-4,0 0.0059,-0.0012 0.0145,-0.01077 0.01912,-0.02274 0.0066,-0.01711 -0.164772,-0.12853 -0.595312,-0.387573 -0.332369,-0.199975 -0.848157,-0.510475 -1.146184,-0.68988 -0.298028,-0.179471 -1.455887,-0.876424 -2.573487,-1.54881 -1.792448,-1.078397 -3.772571,-2.269641 -6.637838,-3.993555 l -0.86403,-0.519864 -0.795817,-0.673344 C 76.87125,26.810806 75.515254,25.662459 74.295207,24.629504 73.07516,23.596549 71.91873,22.617802 71.725338,22.454443 c -0.484088,-0.40891 -0.680539,-0.518922 -1.579232,-0.885217 -1.341882,-0.546932 -1.665509,-0.728592 -2.22002,-1.245402 -0.586227,-0.54637 -1.143035,-1.171213 -2.267561,-2.544031 -0.895855,-1.093657 -1.304527,-1.579354 -1.671216,-1.986442 -1.291832,-1.434158 -2.470125,-2.345102 -3.673161,-2.83962 -0.45183,-0.18573 -0.676137,-0.231114 -1.060917,-0.214974 -0.349265,0.01465 -0.712296,0.09501 -1.12913,0.250631 -0.212727,0.07942 -0.679372,0.300427 -0.880567,0.417029 -0.161237,0.09345 0.008,-0.02769 -2.836519,2.036568 -1.252644,0.909041 -2.305372,1.669596 -2.339392,1.690336 -0.07697,0.04693 -0.176384,0.155381 -0.213424,0.233061 -0.01398,0.02933 -0.03026,0.0521 -0.03824,0.05426 0,0 -5.17e-4,0 -5.17e-4,0 0,0 -5.17e-4,0 -5.17e-4,0 0,0 -5.17e-4,0 -5.17e-4,0 0,0 -5.16e-4,0 -5.16e-4,0 -0.01919,-0.0071 -0.560555,-0.493772 -0.954464,-0.857829 -0.19558,-0.180758 -1.205355,-1.179567 -2.243791,-2.219502 -2.320252,-2.3236 -2.908649,-2.879979 -3.894852,-3.685047 C 43.534337,9.6897299 42.785616,9.2280748 41.960746,8.957076 41.493534,8.8035792 41.006314,8.7265537 40.503988,8.7255656 Z" style="display:inline;fill:#00923f;fill-opacity:1" id="path246" transform="translate(56.201736,109.50998)"/><path id="path248" style="display:inline;fill:#0093dd;fill-opacity:1" d="m 41.977799,28.987895 v 0.466638 c 0,0.256688 0.0031,0.466638 0.0072,0.466638 0.130561,0 3.180099,0.273228 4.361491,0.390674 5.899018,0.586438 13.056204,1.53833 19.854085,2.640666 0.16764,0.02718 0.686201,0.110746 1.151868,0.186035 1.201301,0.194225 3.847451,0.638065 5.299935,0.888834 2.902356,0.501087 4.284704,0.747319 9.846944,1.752865 4.519752,0.817084 5.80452,1.040034 7.746814,1.344621 0.185535,0.0291 0.305346,0.04273 0.320911,0.03876 h 5.16e-4 5.17e-4 l 5.17e-4,-5.17e-4 h 5.17e-4 v -5.16e-4 -5.17e-4 h -5.17e-4 c -0.004,-0.0033 -0.02589,-0.01014 -0.06821,-0.01964 -0.05588,-0.01254 -0.485567,-0.103208 -0.954464,-0.201538 -0.468897,-0.09832 -0.975589,-0.204995 -1.126029,-0.237195 -0.15044,-0.0322 -0.780062,-0.165706 -1.399398,-0.296623 -0.619337,-0.130918 -1.194655,-0.253201 -1.278475,-0.271301 -0.414177,-0.08944 -1.779907,-0.376059 -2.709395,-0.568958 -0.381847,-0.07925 -0.987608,-0.204989 -1.346171,-0.279569 -2.791354,-0.580559 -6.419432,-1.301163 -9.245431,-1.836064 -4.291652,-0.812319 -8.793884,-1.598013 -12.412162,-2.165759 -0.20955,-0.03288 -0.552677,-0.08693 -0.762227,-0.119889 -1.504088,-0.236598 -4.272488,-0.644537 -5.638933,-0.830957 -4.127194,-0.56306 -7.73596,-0.983412 -10.947135,-1.275892 -0.30734,-0.02799 -0.591389,-0.05548 -0.630969,-0.06098 z m -30.122192,1.491898 c -0.02359,0 -0.769634,0.27606 -1.046448,0.387057 -1.7448039,0.699634 -3.1886368,1.555237 -4.3036129,2.550748 -1.3785892,1.230879 -2.2694274,2.681498 -2.6701213,4.348572 -0.1082438,0.450344 -0.2376702,1.22152 -0.3121256,1.857768 -0.332412,2.840582 0.072593,5.049495 1.2133626,6.617167 0.5978444,0.821572 1.3483785,1.439446 2.3497274,1.934249 0.3720347,0.183837 0.6393995,0.294504 1.0485148,0.433565 1.053757,0.358177 2.365903,0.581865 3.802869,0.648539 0.162983,0.0076 0.422522,0.01289 0.576192,0.01189 l 0.279053,-0.0021 V 48.52262 47.777445 l -0.397909,-0.01137 C 10.847139,47.721498 9.7212328,47.555563 8.7374512,47.227608 7.8048655,46.916719 7.1198873,46.510849 6.5603231,45.937764 5.9728933,45.33614 5.6465688,44.710274 5.4100057,43.731181 5.16401,42.713048 5.0530238,41.898598 5.0348348,40.978894 5.0129313,39.871386 5.1434046,38.960695 5.4606486,38.006982 5.8847411,36.732056 6.578104,35.669098 7.6667155,34.62631 8.6461904,33.688066 10.10355,32.775926 11.696444,32.1045 l 0.173632,-0.07286 v -0.775664 c 0,-0.426662 -0.0066,-0.77618 -0.01447,-0.77618 z m 68.450602,7.178374 c -1.114494,-0.02209 -4.529823,-0.01159 -5.50354,0.01705 -0.983003,0.02892 -2.106194,0.06826 -2.243274,0.07855 l -0.127124,0.0098 -0.945162,0.03772 c -0.05795,0.0023 -0.01113,0.0059 -0.291455,0.01757 -0.242378,0.01007 -0.636128,0.0325 -1.820044,0.10387 -0.08848,0.0053 -0.184433,0.01317 -0.213423,0.01757 l -0.05271,0.0078 -1.263489,0.08423 c -0.03741,0.0025 -1.463271,0.11613 -1.763717,0.14366 -0.154117,0.01412 -0.301772,0.02584 -0.328662,0.02584 h -0.04909 l -1.421619,0.14366 -0.116272,0.0124 c -0.06392,0.0067 -0.341239,0.03548 -0.615983,0.06408 -0.274743,0.02861 -0.666257,0.07062 -0.870231,0.09353 -0.203973,0.02291 -0.380734,0.04155 -1.185974,0.134358 l -0.84336,0.101286 c -0.02096,0.0045 -0.201805,0.02837 -0.402042,0.05271 -0.200236,0.02434 -0.588794,0.0741 -0.862997,0.110588 -0.274202,0.03649 -0.512496,0.06385 -0.529166,0.06615 l -1.791622,0.252698 -0.05478,0.0093 c -0.03027,0.0052 -0.386553,0.05904 -0.791683,0.119372 -0.40513,0.06033 -0.757528,0.113973 -0.782898,0.119373 l -0.04599,0.0098 -1.956987,0.308508 -0.719336,0.12299 c -0.395816,0.06776 -0.729193,0.121923 -0.740523,0.124023 l -2.150773,0.390157 c -0.0069,0.0012 -0.294645,0.05299 -0.639238,0.117306 -0.344594,0.06432 -0.627002,0.113819 -0.628902,0.114205 l -2.30942,0.457853 -0.520381,0.10387 c -0.286385,0.05725 -0.530676,0.101986 -0.542086,0.104386 l -2.501656,0.532784 -0.254248,0.05478 c -0.1397,0.0302 -0.522562,0.114878 -0.851111,0.185518 l -0.607198,0.130742 v 0.604097 l -0.0036,0.624251 c 0,0 0.586665,-0.140824 0.856278,-0.200504 0.293751,-0.06503 0.88315,-0.187069 0.88315,-0.187069 l 2.467033,-0.450101 1.066085,-0.213941 2.303219,-0.489376 1.295528,-0.270784 2.120801,-0.438733 1.493448,-0.285771 1.941484,-0.375171 1.678451,-0.291455 1.765266,-0.297656 1.853117,-0.299207 1.583883,-0.239261 2.016414,-0.279053 1.414384,-0.180351 c 0.722165,-0.08716 1.444111,-0.183093 2.166276,-0.261483 l 1.248503,-0.137459 2.323889,-0.217041 1.060917,-0.08578 L 74.995939,38.1 75.86462,38.04884 c 0.483403,-0.02075 1.90965,-0.106704 2.960543,-0.127124 1.05674,-0.04379 2.933075,-0.04599 3.440617,-0.04599 1.874325,-9e-5 4.453991,0.0987 4.453991,0.0987 0,0 1.111869,0.04969 1.122929,0.04599 0.02256,-0.0075 -0.762913,-0.05315 -1.677417,-0.114721 -1.889051,-0.12719 -3.75424,-0.20582 -5.859074,-0.24753 z m -48.4203,6.687447 -0.05529,0.01188 c -0.03037,0.0065 -0.790566,0.186856 -1.689302,0.400493 -4.025857,0.956983 -6.410837,1.499626 -8.064624,1.836063 l -0.147795,0.03049 v 0.785482 0.785999 l 0.04134,-0.01034 c 0.02293,-0.0058 0.192433,-0.04142 0.376721,-0.07907 2.218101,-0.453187 5.025854,-1.138064 9.318295,-2.272729 l 0.211873,-0.05581 0.0041,-0.716235 z" transform="translate(56.201736,109.50998)"/><path id="path95" style="display:inline;fill:#e67817;fill-opacity:1" d="m 89.92371,38.728902 c 0.0085,-0.0091 -0.63012,0.0076 -1.30483,0.03204 -0.530279,0.01925 -1.083332,0.04427 -1.361674,0.05891 -0.256116,0.01346 -0.617818,0.03257 -0.804085,0.04237 -0.534135,0.0352 -0.452162,0.03168 -0.452169,0.05994 1.3e-5,0.02004 0.177737,0.0099 0.79065,-0.02635 0.158326,-0.0094 0.425088,-0.02461 0.592728,-0.03411 0.16764,-0.0095 0.481977,-0.02742 0.698666,-0.03979 0.216689,-0.01237 1.833914,-0.08572 1.840714,-0.09302 z m -4.238501,0.188099 c -0.44921,0.0302 -0.905727,0.0665 -1.243852,0.0894 -0.338125,0.0229 -0.565302,0.03881 -0.794783,0.05684 -0.229482,0.01803 -0.461417,0.03809 -0.630969,0.05271 -0.169553,0.01462 -0.322088,0.02869 -0.375688,0.03308 -0.0536,0.0044 -0.05368,0.0045 0.0078,0.0021 0.06138,-0.0024 0.229431,-0.01277 0.322977,-0.01809 0.09355,-0.0053 0.158269,-0.01114 0.356568,-0.02429 0.198298,-0.01315 0.530512,-0.03374 0.842325,-0.05323 0.311813,-0.01948 0.603089,-0.03761 0.850594,-0.05271 0.247505,-0.0151 0.458323,-0.03326 0.661976,-0.04496 z m -3.584794,0.280086 c -0.164289,0.0105 -0.343165,0.02128 -0.540019,0.03514 -0.196878,0.01386 -0.426156,0.03066 -0.65629,0.04754 -0.230135,0.01688 -0.460951,0.03376 -0.683163,0.05064 -0.222212,0.01688 -0.435978,0.03393 -0.649573,0.05116 l -0.335896,0.0248 -0.0021,0.06821 c 0.0379,-0.0034 0.0956,-0.01123 0.23306,-0.02377 0.137462,-0.01256 0.374435,-0.03415 0.580843,-0.05374 0.206409,-0.01959 0.381886,-0.03685 0.586528,-0.05736 0.204643,-0.02051 0.438428,-0.04406 0.685746,-0.06615 0.247318,-0.02209 0.522793,-0.04289 0.783931,-0.06356 -0.0011,-0.0043 -0.002,-0.0086 -0.0031,-0.01292 z m -3.532084,0.269751 -1.102775,0.08268 c -0.498546,0.03848 -1.044078,0.09494 -1.216375,0.109022 -0.172297,0.01409 -0.406454,0.03734 -0.427404,0.04624 -0.03663,0.01557 -0.0366,0.09088 0.03526,0.148085 0.05794,-0.0095 1.370284,-0.156866 2.15164,-0.243396 0.282284,-0.03125 0.55913,-0.05813 0.559139,-0.05943 z M 74.92876,39.77948 c -0.103202,-5.81e-4 -0.355733,0.02254 -0.992704,0.08165 -1.302265,0.120854 -1.407107,0.1315 -1.426787,0.14366 h -5.17e-4 c -0.0093,0.0089 -0.01705,0.06495 -0.01705,0.127124 0,0.08825 0.0063,0.120565 0.02636,0.131775 0.01457,0.0081 0.07004,0.0088 0.12299,0.0016 0.525087,-0.07138 2.365055,-0.312 2.413165,-0.31208 0.07492,-1.24e-4 0.156979,-0.177161 -0.0026,-0.178063 z m -3.543453,0.330212 c -0.02758,-4e-4 -0.0649,0.0017 -0.112655,0.0067 -0.07916,0.0083 -0.449121,0.04575 -0.821655,0.0832 -1.154225,0.116044 -1.349173,0.147106 -1.373043,0.166916 -0.02982,0.02974 -0.09627,0.386364 -0.02124,0.367935 0.13153,-0.03231 0.392334,-0.04164 0.566343,-0.06 0.25995,-0.0369 0.670459,-0.09444 0.912606,-0.127641 0.72793,-0.09981 0.907799,-0.13052 0.926559,-0.14211 0.08964,-0.05125 0.0061,-0.196126 -0.0041,-0.287887 -0.007,-0.0058 -0.04528,-0.0068 -0.07286,-0.0072 z m -3.486609,0.371554 c -0.0283,-0.01086 -2.186935,0.222332 -2.214335,0.239262 l -5.17e-4,5.17e-4 -5.16e-4,5.16e-4 c -0.01698,0.03129 -0.02173,0.471983 -0.0052,0.502812 l 5.17e-4,5.17e-4 5.17e-4,5.17e-4 c 0.01945,0.01945 0.108726,0.0086 0.455785,-0.04444 0.378776,-0.05786 0.822828,-0.123655 1.360124,-0.202055 0.199713,-0.02914 0.318062,-0.05276 0.411344,-0.06666 0.138692,-0.09443 0.02058,-0.277059 -0.0077,-0.430985 z m -3.626135,0.402559 c -0.01317,-0.0051 -0.319698,0.02619 -0.681612,0.06925 -1.279682,0.152246 -1.407218,0.173586 -1.431438,0.206706 -0.0162,0.0221 -0.02222,0.104953 -0.02222,0.304891 0,0.151128 0.0048,0.288077 0.01085,0.303857 h 5.16e-4 c 0.05931,0 0.115163,-0.002 0.177763,-0.0088 0.07099,-0.0077 0.790013,-0.108212 1.630908,-0.244946 l 0.330213,-0.05374 0.0047,-0.283703 c 0.0038,-0.232309 -4.1e-5,-0.286023 -0.01964,-0.293523 z m -3.530017,0.439771 c -0.01532,-0.01531 -0.246497,0.0092 -0.776697,0.07752 -1.049271,0.135115 -1.124536,0.146063 -1.141016,0.172083 -0.02126,0.03355 -0.01946,0.704021 0.0021,0.744141 0.009,0.01688 0.02318,0.03087 0.03204,0.03256 h 5.16e-4 l 5.17e-4,5.17e-4 h 5.17e-4 c 0.01321,0 0.889985,-0.147124 1.614888,-0.270785 0.09802,-0.01672 0.204909,-0.03406 0.217042,-0.04237 l 5.17e-4,-5.16e-4 5.16e-4,-5.17e-4 h 5.17e-4 c 0.08259,-0.209969 0.07471,-0.609748 0.04854,-0.712631 z m -3.68453,0.474389 c -0.03259,-0.01251 -1.638154,0.212441 -1.663464,0.233061 l -5.17e-4,5.17e-4 c -0.0287,0.03673 -0.03069,0.8779 -0.0026,0.915706 v 5.17e-4 l 5.17e-4,5.17e-4 h 5.17e-4 c 0.01188,0.0048 0.02472,0.0096 0.02842,0.01033 0.02859,0.0057 1.621966,-0.292161 1.639176,-0.306441 h 5.17e-4 c 0.03285,-0.0396 0.03142,-0.81629 -10e-4,-0.853178 h -5.17e-4 l -5.16e-4,-5.17e-4 v -5.17e-4 z m -3.620451,0.514181 c -0.02119,-0.0081 -1.44727,0.200195 -1.49451,0.218325 -0.02137,0.0082 -0.02532,0.08637 -0.02532,0.532268 0,0.287454 0.0052,0.527617 0.01137,0.533817 0.0058,0.0058 0.01353,0.01027 0.01757,0.01085 l 5.16e-4,5.17e-4 c 0.02319,0 1.458508,-0.275888 1.482108,-0.284988 0.02656,-0.01018 0.02945,-0.05403 0.02945,-0.506946 0,-0.357301 -0.0047,-0.482454 -0.0186,-0.501778 l -5.17e-4,-5.17e-4 -5.17e-4,-5.16e-4 -5.16e-4,-5.17e-4 -5.17e-4,-5.17e-4 z m -3.616317,0.556555 c -0.0073,-0.0045 -0.150014,0.01373 -0.317293,0.04031 -0.16728,0.02658 -0.429757,0.06808 -0.583427,0.0925 -0.15367,0.02442 -0.302272,0.05026 -0.330212,0.05736 l -0.05064,0.01344 -0.0047,0.58291 c -0.0025,0.320663 -8.49e-4,0.592398 0.0036,0.604098 0.0037,0.0095 0.0084,0.01748 0.01137,0.02015 l 5.17e-4,5.17e-4 v 5.16e-4 h 5.17e-4 5.16e-4 c 0.0026,-3.4e-5 0.290265,-0.0573 0.639238,-0.127124 0.348973,-0.06982 0.636637,-0.126607 0.639237,-0.126607 0.01181,0 0.0031,-1.150769 -0.0088,-1.158069 z m -3.576526,0.59893 -0.04651,5.17e-4 c -0.05709,9e-5 -1.004566,0.164823 -1.016476,0.176733 -0.0047,0.0047 -0.0093,0.305773 -0.01034,0.66921 l -0.0015,0.660942 h 0.03824 c 0.02102,0 0.142154,-0.02341 0.269234,-0.05168 0.12708,-0.02827 0.322963,-0.07054 0.435633,-0.09405 0.11267,-0.02351 0.233787,-0.05033 0.268717,-0.05943 l 0.06305,-0.01654 v -0.642855 z m -3.564123,0.638204 c -0.03374,-0.01215 -1.667881,0.306209 -1.697571,0.330729 l -0.0088,0.732255 0.01033,0.73949 0.476456,-0.0956 c 0.22352,-0.05121 0.561587,-0.127963 0.750859,-0.170533 0.189273,-0.04257 0.373997,-0.0863 0.410827,-0.09715 l 0.06718,-0.01964 0.0036,-0.706934 c 0.0024,-0.459268 -0.0019,-0.708618 -0.01292,-0.712618 z m -10.833447,2.36523 c -0.06288,0.003 -0.227518,0.0458 -0.681096,0.163298 -3.186676,0.825477 -6.072359,1.708462 -8.552966,2.616894 -0.289476,0.10601 -0.561651,0.20822 -0.605131,0.22686 l -0.07906,0.03359 v 0.963248 c 0,0.529639 0.0047,0.967901 0.01085,0.974101 0.01745,0.01744 0.02082,0.01656 0.248564,-0.07286 2.293518,-0.900545 6.04398,-2.124879 9.265584,-3.024621 0.226499,-0.06326 0.415564,-0.124917 0.427364,-0.139527 0.01633,-0.02018 0.02085,-0.215704 0.02067,-0.848527 -1.3e-4,-0.452245 -0.005,-0.840033 -0.01085,-0.861963 -0.0052,-0.01957 -0.0062,-0.03228 -0.04392,-0.03049 z" transform="translate(56.201736,109.50998)"/><g id="layer3" style="display:inline" transform="translate(56.201736,109.50998)"><path style="display:inline;opacity:1;fill:#cbcdc5;fill-opacity:1" d="m 85.837655,38.520132 c -0.07783,0.0014 -0.153913,0.05244 -0.170016,0.154513 l 0.0016,0.861963 c 0.180293,-0.03724 0.17885,-0.0412 0.348816,-0.07597 l -5.16e-4,-0.79685 c -0.02231,-0.09686 -0.102002,-0.145075 -0.179834,-0.143661 z" id="path79"/><path style="display:inline;opacity:1;fill:#dededc;fill-opacity:1" d="m 89.35837,38.462252 c -0.03527,-5.68e-4 -0.07131,0.01695 -0.08423,0.06046 l -0.001,0.301791 0.162264,-0.0186 0.0031,-0.294556 c -0.01033,-0.02986 -0.04483,-0.04852 -0.0801,-0.04909 z" id="path78"/><path style="display:inline;opacity:1;fill:#bfbfbd;fill-opacity:1" d="m 82.360864,38.180615 c -0.118187,-0.0023 -0.238389,0.06295 -0.264583,0.207223 -0.0061,0.03016 -0.0086,0.368391 -0.0041,0.751375 l 0.01344,1.138949 c 0.265021,-0.05358 0.349518,-0.07429 0.522965,-0.110071 l -0.01499,-1.118278 5.17e-4,-0.671277 c -0.01881,-0.125616 -0.135027,-0.195581 -0.253215,-0.197921 z" id="path77"/><path style="display:inline;opacity:1;fill:#b1b0ae;fill-opacity:1" d="m 78.890792,37.965125 c -0.05281,0.0019 -0.10632,0.01443 -0.150895,0.03721 -0.101209,0.05171 -0.164966,0.136944 -0.186036,0.248046 -0.0096,0.0504 -0.01757,0.342247 -0.01757,0.653191 v 0.561722 1.535307 l 0.705383,-0.144694 0.0057,-0.948262 v -1.067119 c 0,-0.344678 -0.0071,-0.587742 -0.01809,-0.627352 -0.02167,-0.07804 -0.113866,-0.184502 -0.192236,-0.221692 -0.04132,-0.0196 -0.09343,-0.02828 -0.146244,-0.02635 z" id="path76"/><path style="display:inline;opacity:1;fill:#a6a5a3;fill-opacity:1" d="m 75.420719,37.756868 c -0.347182,0.0048 -0.42478,0.355018 -0.42478,0.355018 l 10e-4,0.802018 v 2.859774 c 0.286712,-0.06826 0.578742,-0.136106 0.884183,-0.205156 l 5.17e-4,-0.280603 0.0015,-1.595768 -0.0041,5.17e-4 -0.0057,-0.817522 0.0083,-0.762227 c 0,0 -0.08483,-0.36399 -0.460954,-0.356051 z" id="path75"/><path style="display:inline;opacity:1;fill:#9b9b9b;fill-opacity:1" d="m 71.965633,37.501587 c -0.225756,0.0042 -0.450935,0.153074 -0.521932,0.432015 5.18e-4,0.526558 -0.0026,0.980668 -0.0026,1.603003 l -5.16e-4,3.150195 c 0.146411,-0.03916 0.293434,-0.07798 0.4408,-0.116789 0.206298,-0.05433 0.441002,-0.111316 0.626835,-0.160197 2.5e-4,-0.421743 -0.0043,-0.881021 -0.0041,-1.354439 L 72.49068,37.93877 c -0.07283,-0.300754 -0.299277,-0.441345 -0.525033,-0.437183 z" id="path74"/><path style="display:inline;opacity:1;fill:#908f8d;fill-opacity:1" d="m 68.50693,37.173442 c -0.134447,-0.0033 -0.2726,0.03822 -0.393775,0.129707 -0.167114,0.126175 -0.244946,0.309522 -0.244946,0.577226 v 0.146244 2.512509 3.166731 c 0.408005,-0.124002 0.820093,-0.246369 1.236617,-0.367419 -4.47e-4,-0.467813 -5.17e-4,-0.968404 -5.17e-4,-1.488281 v -4.007508 l -0.0026,-0.05788 c -0.0056,-0.115554 -0.01781,-0.172777 -0.05168,-0.246497 -0.105523,-0.229707 -0.319041,-0.359411 -0.543119,-0.364835 z" id="path73"/><path style="display:inline;opacity:1;fill:#878684;fill-opacity:1" d="m 64.971745,36.731091 c -0.285973,0.005 -0.548878,0.195628 -0.652674,0.480074 -0.02652,0.07266 -0.03189,0.158771 -0.03979,0.609266 l -10e-4,0.05839 v 2.99775 3.996655 c 0.467722,-0.162732 0.942263,-0.323202 1.423169,-0.481624 -2.09e-4,-0.473848 -5.17e-4,-0.970922 -5.17e-4,-1.482597 v -4.927348 c -0.0013,-0.06164 -0.0023,-0.14039 -0.0036,-0.241329 -0.0053,-0.41977 -0.0089,-0.4693 -0.04082,-0.54777 -0.111062,-0.273072 -0.338444,-0.43974 -0.627352,-0.45992 -0.01923,-0.0013 -0.0383,-0.0019 -0.05736,-0.0016 z" id="path72"/><path style="display:inline;opacity:1;fill:#7e7d7b;fill-opacity:1" d="m 61.448446,36.145081 c -0.311715,0.01059 -0.613631,0.204668 -0.731222,0.553454 -0.03426,0.101771 -0.03606,0.14293 -0.04186,1.075387 l -0.0047,0.729671 c 3e-6,0.0039 -3e-6,0.0028 0,0.0067 0.002,2.496691 0.0012,6.36911 -0.0021,7.714258 0.52194,-0.210367 1.053937,-0.417901 1.595769,-0.622185 -0.0023,-2.193595 -7.75e-4,-5.335596 0.0052,-7.04143 l -0.0062,0.001 v -0.882633 c 0,-0.8654 -9.85e-4,-0.884776 -0.03772,-0.996839 -0.0219,-0.06672 -0.06938,-0.15628 -0.114205,-0.21549 -0.172194,-0.22743 -0.420564,-0.330178 -0.663008,-0.321944 z" id="path71"/><path style="display:inline;opacity:1;fill:#737270;fill-opacity:1" d="m 57.952535,35.394739 c -0.142342,-0.0013 -0.286917,0.03153 -0.420646,0.102319 -0.131707,0.06971 -0.291345,0.228677 -0.360185,0.359151 -0.110659,0.209752 -0.107487,0.150894 -0.107487,1.843815 0,0.18695 -7.7e-5,0.366217 -5.17e-4,0.532268 0.0011,0.955603 0.001,2.318839 0.001,4.260205 V 47.8007 c 0.572336,-0.271929 1.159701,-0.539671 1.762166,-0.803052 -0.0011,-0.8619 -0.001,-2.09339 -0.001,-3.849894 0,-1.751424 0.0019,-3.32969 0.0047,-4.405933 -0.0038,-0.204497 -0.0052,-0.566351 -0.0052,-1.180289 0,-1.548337 0.0019,-1.519136 -0.09767,-1.702739 -0.158837,-0.292833 -0.461995,-0.461115 -0.775146,-0.464054 z" id="path70"/><path style="display:inline;opacity:1;fill:#6a6967;fill-opacity:1" d="m 54.413733,34.455261 c -0.157784,-1.5e-5 -0.31516,0.03648 -0.452686,0.109554 -0.212056,0.112673 -0.391149,0.328725 -0.474389,0.572058 l -0.03772,0.110071 -0.0041,2.27273 -0.0052,2.273246 h -5.17e-4 c 0.0015,0.96303 0.0021,2.302399 0.0021,4.133598 v 5.759338 c 0.611086,-0.349803 1.251902,-0.696494 1.950269,-1.056266 -0.0019,-1.186654 -0.0031,-2.710352 -0.0031,-4.459676 V 38.4545 c -4.27e-4,-0.270293 -5.16e-4,-0.611179 -5.16e-4,-1.040246 0,-2.294934 0.0043,-2.196157 -0.108004,-2.429826 -0.0681,-0.14167 -0.266252,-0.344383 -0.410311,-0.419613 -0.139808,-0.07301 -0.298002,-0.109539 -0.455786,-0.109554 z" id="path69"/><path style="display:inline;opacity:1;fill:#635f5e;fill-opacity:1" d="m 50.928158,33.292025 c -0.447901,-0.01518 -0.87225,0.253051 -1.039214,0.710551 l -0.04599,0.126607 -0.0052,3.150712 -0.0047,3.150712 -0.0021,5.17e-4 c 0.0026,1.119753 0.0029,3.043045 0.0026,6.341732 l -5.17e-4,5.234822 c 0.354397,-0.255162 0.725485,-0.512514 1.118795,-0.77618 0.33447,-0.224221 0.665674,-0.439944 0.998905,-0.650089 v -5.285983 -6.978385 l 0.0016,-0.001 c -8.02e-4,-0.356837 -0.0015,-0.756109 -0.0016,-1.185457 -2.78e-4,-3.237211 0.0075,-3.015572 -0.114205,-3.263883 -0.08634,-0.176165 -0.285305,-0.375131 -0.46147,-0.461471 -0.145918,-0.07152 -0.297701,-0.10811 -0.447001,-0.113171 z" id="path68"/><path style="display:inline;opacity:1;fill:#585453;fill-opacity:1" d="m 47.395557,31.902445 c -0.202255,3.14e-4 -0.343112,0.03318 -0.519865,0.120407 -0.259185,0.12791 -0.481552,0.384108 -0.576192,0.663525 l -0.04703,0.13901 -0.0047,4.148584 -0.0036,4.148584 v 6.8833 7.042981 c 0.760016,-0.755526 1.501062,-1.422249 2.306319,-2.068091 -9.6e-5,-1.387461 4.75e-4,-3.071022 10e-4,-4.880839 l 0.0036,-7.433138 c -0.0014,1.99e-4 -0.0027,5.11e-4 -0.0031,5.17e-4 -0.0018,-0.0014 -0.0062,-1.759239 -0.0098,-3.905705 -0.006,-3.617794 -0.0083,-3.909816 -0.03514,-4.002856 -0.148375,-0.515008 -0.59254,-0.857085 -1.11156,-0.856279 z" id="path67"/><path style="display:inline;opacity:1;fill:#4d4948;fill-opacity:1" d="m 43.958557,30.268437 c -0.114162,-0.0031 -0.228341,0.0041 -0.304891,0.02325 -0.359166,0.08968 -0.664664,0.332578 -0.821655,0.652673 -0.149506,0.304833 -0.134161,-0.310633 -0.143661,5.639966 -0.0085,5.266355 4.16e-4,6.521122 -0.0036,7.004224 l -0.0047,0.513147 -0.0067,1.431954 c -4e-5,0.0086 0.01569,2.094676 0.01654,4.897892 0.03595,1.687519 -0.03619,3.837614 0.03649,5.52342 l 2.454307,-0.277229 c -0.0023,-1.360733 -0.0031,-3.442798 -0.0031,-6.539135 V 40.83678 l -0.0047,-4.508769 -0.0041,-5.01003 -0.03721,-0.129191 c -0.123305,-0.432026 -0.43254,-0.745445 -0.868681,-0.88005 -0.07546,-0.02329 -0.189695,-0.03714 -0.303857,-0.04031 z" id="path274"/></g><path style="display:inline;fill:#e67817;fill-opacity:1" d="m 89.784184,38.749052 c 0.0612,-0.01459 -0.597817,0.07126 -0.668177,0.07906 -1.538216,0.170923 -5.005483,0.664725 -6.963916,0.992187 -0.89721,0.15002 -1.360779,0.228901 -1.786454,0.304891 -0.23749,0.0424 -0.599192,0.107111 -0.804085,0.143661 -0.500868,0.08936 -0.617333,0.110728 -0.914673,0.167948 -0.1397,0.02688 -0.478698,0.09187 -0.753442,0.144694 -0.274743,0.05282 -0.816008,0.160385 -1.202511,0.238745 -0.386504,0.07836 -0.782776,0.157477 -0.880566,0.176217 -0.09779,0.01874 -0.295928,0.06022 -0.440284,0.09198 -0.144357,0.03175 -0.372936,0.0816 -0.507979,0.110588 -0.663172,0.142353 -2.159924,0.477958 -2.615861,0.586527 -1.602763,0.381652 -3.386003,0.837022 -4.504118,1.149801 -2.227142,0.623016 -3.377083,0.97113 -5.291666,1.602486 -1.574704,0.519277 -4.028042,1.424704 -5.275131,1.947168 -0.613775,0.257139 -1.698948,0.72401 -1.848982,0.7953 -0.09531,0.04528 -0.177218,0.08217 -0.182418,0.08217 -0.01358,0 -0.786819,0.356733 -1.329635,0.613399 -0.43992,0.208012 -1.572217,0.769907 -1.78077,0.883667 -0.05281,0.02881 -0.151181,0.08152 -0.218591,0.117305 -0.364469,0.193475 -0.98363,0.53311 -1.311031,0.71882 -0.204893,0.11622 -0.448956,0.253667 -0.542086,0.305407 -0.384324,0.213508 -1.187186,0.705547 -1.618506,0.992188 -0.09699,0.06446 -0.298503,0.197086 -0.447517,0.294556 -0.329828,0.215733 -0.945608,0.640268 -1.278475,0.881599 -0.135044,0.09791 -0.290869,0.208284 -0.346749,0.245464 -0.206797,0.137587 -1.021908,0.770977 -1.116728,0.867647 -0.02838,0.02894 -0.18885,0.166188 -0.356051,0.304891 -0.167202,0.138703 -0.452538,0.38417 -0.634586,0.545703 -0.379922,0.337108 -1.248348,1.161945 -1.327568,1.260905 -0.02933,0.03663 -0.06493,0.07161 -0.07906,0.07751 -0.04762,0.01982 -0.537317,0.548766 -0.958081,1.035079 -0.541541,0.625906 -1.197633,1.51019 -1.652095,2.226738 -1.604164,2.529277 -2.417457,5.241437 -2.418457,8.064107 l -5.17e-4,0.443901 -0.04496,0.01137 c -0.02476,0.0062 -0.224702,0.002 -0.444417,-0.0093 -1.352655,-0.06984 -3.408219,-0.34276 -5.699394,-0.756543 -0.792423,-0.14311 -2.214223,-0.424721 -2.853572,-0.56534 -0.08848,-0.01945 -0.267522,-0.05829 -0.397909,-0.0863 -1.551025,-0.333169 -3.73921,-0.891026 -5.310787,-1.353923 -4.849693,-1.428444 -8.136806,-3.011161 -9.480041,-4.564579 -0.187761,-0.217141 -0.258203,-0.312527 -0.384473,-0.522965 -0.189958,-0.316581 -0.290684,-0.590693 -0.337964,-0.918291 -0.02583,-0.178658 -0.02654,-0.22175 -0.0057,-0.411344 0.0177,-0.160593 0.02494,-0.594617 0.02894,-1.799373 0.0048,-1.44357 0.0024,-1.588852 -0.02222,-1.598352 -0.03264,-0.01253 -0.148176,0.09816 -0.42013,0.401009 -0.507422,0.565065 -0.85012,1.047462 -1.118278,1.574581 -0.216771,0.426106 -0.328965,0.719427 -0.430981,1.128096 -0.183376,0.734512 -0.181182,1.540674 0.0057,2.115117 0.08154,0.250705 0.246382,0.581323 0.418063,0.838191 0.62424,0.933987 1.747613,1.851144 3.409611,2.784326 0.817236,0.458864 1.990267,1.022276 2.963126,1.423169 0.07451,0.0307 0.249941,0.103154 0.389641,0.160714 2.130654,0.877832 5.066059,1.830489 8.136454,2.641183 0.393384,0.103868 2.019596,0.512996 2.319755,0.583426 0.144356,0.03387 0.372935,0.0877 0.507979,0.11989 1.659209,0.395519 3.981154,0.864098 5.69836,1.150317 1.339849,0.223323 2.281609,0.340717 2.929537,0.364319 0.331579,0.01205 0.385314,0.01135 0.725538,-0.0078 0.324923,-0.01814 0.690551,-0.117475 0.933276,-0.253215 0.227812,-0.1274 0.471281,-0.354674 0.623734,-0.581877 0.26997,-0.40234 0.451129,-0.998651 0.503329,-1.65778 0.09824,-1.240506 0.173014,-1.817252 0.338997,-2.621028 0.628748,-3.044717 2.044438,-5.838027 4.273124,-8.431527 0.619965,-0.721447 1.489308,-1.604409 2.287716,-2.322855 0.757889,-0.681985 1.875633,-1.579324 2.616378,-2.101164 0.07916,-0.05577 0.2773,-0.195345 0.440283,-0.310059 0.750666,-0.52835 1.828423,-1.221209 2.615861,-1.681034 0.480311,-0.280478 1.065152,-0.614226 1.261422,-0.719853 0.04191,-0.02255 0.228696,-0.123168 0.414962,-0.223759 1.314858,-0.710073 3.188912,-1.60989 4.547009,-2.183846 1.682801,-0.711182 2.723689,-1.120901 4.199227,-1.651579 2.285331,-0.821922 4.363445,-1.479116 7.120495,-2.252059 0.705509,-0.19779 2.51572,-0.6737 3.538802,-0.930175 1.840829,-0.461473 2.91813,-0.6986 5.740735,-1.264523 2.04224,-0.409462 2.518286,-0.505402 2.675289,-0.539502 0.08382,-0.01821 0.335102,-0.07092 0.558622,-0.117305 0.50107,-0.103962 1.332835,-0.277864 2.193148,-0.45837 1.195946,-0.250926 2.812613,-0.572022 3.674711,-0.729671 0.09779,-0.01788 0.896434,-0.157681 0.917774,-0.162781 z" id="path96" transform="translate(56.201736,109.50998)"/></g></svg>